<?xml version="1.0" encoding="UTF-8"?>
<!-- Generator: Adobe Illustrator 26.1.0, SVG Export Plug-In . SVG Version: 6.00 Build 0)  -->
<svg xmlns="http://www.w3.org/2000/svg" xmlns:xlink="http://www.w3.org/1999/xlink" version="1.1" id="Layer_1" x="0px" y="0px" width="459.286px" height="641.008px" viewBox="0 0 459.286 641.008" xml:space="preserve">
<g id="_x3C_Group_x3E__Cat">
	<path id="_x23_333333_00000158719927229811110160000004195225983231520673_" fill="#333333" d="M452.288,377.56   c0.437-0.579,0.371-1.538,0.301-2.501c-0.061-0.831-0.768-1.452-1.6-1.441c-4.939,0.065-8.11,3.845-13.473,6.266   c1.618-9.129,3.077-17.356,4.544-25.634c0.066-0.372-0.431-0.573-0.638-0.257c-9.626,14.677-15.203,31.887-26.085,45.692   c-0.36,0.457-1.091,0.144-1-0.43c1.544-9.746,3.087-19.491,4.631-29.236c0.065-0.41-0.503-0.585-0.68-0.209   c-2.952,6.284-5.879,12.516-9.164,19.51c-2.156-7.612-0.032-15.037-3.538-22.776c-5.241,9.661-0.15,18.814-1.65,28.476   c-3.211-7.485-2.934-15.394-9.432-21.409c0.543,11.496,3.239,21.426,4.761,32.622c1.202,7.935-1.618,11.581-9.414,12.469   c-5.55,0.632-9.621,3.098-10.83,8.838c-0.974,4.624-1.853,9.303-2.245,14.002c0.096,8.049-8.728,5.407-8.826,13.15   c-0.526,11.627-14.274-1.701-21.1-0.871c-8.481-0.816-13.961-3.919-14.467-13.081c-3.564-10.793-11.279,7.852-9.153,12.426   c3.255,13.919-12.216,7.592-12.905,20.143c-0.404,3.33-1.083,6.626-1.594,9.67c-4.638,1.285-7.574-0.286-10.305-3.503   c-4.906-5.779-10.167-11.258-15.342-16.805c-4.052-3.654-10.467-5.553-13.599-9.827c-7.539-11.695-16.357-23.25-19.201-37.148   c-0.148-0.724,0.761-1.197,1.248-0.641c4.091,4.673,10.429,19.168,14.603,7.919c4.516,2.813,5.38,6.377,10.201,1.689   c0.744-0.668,2.246-0.895,3.302-0.724c4.207,0.217,10.577,2.691,14.906-0.088c5.378-3.453,10.236,7.178,12.912,6.473   c0.199-0.052,0.282-0.299,0.173-0.474c-14.553-23.403-9.273-3.884-23.189-9.098c-2.32-0.689-5.152-1.099-7.361-0.397   c-6.424,2.711-15.899-5.125-8.533-10.022c0.961-0.639,1.896-1.325,2.675-2.175c2.452-2.677,3.362-5.625,1.304-9.502   c-2.688-6.895,6.761-4.817,9.714-2.274c4.149,4.08,7.438,9.056,13.888,10.478c0.247,0.055,0.431-0.239,0.277-0.44   c-6.755-8.82-14.842-17.041-12.801-30.148l16.932,16.991c-0.313-4.053-1.017-7.102,0.173-10.976   c4.586,1.166,7.473,3.471,10.501,7.26c1.42-2.867,2.72-3.54,4.796-5.469c2.894,2.521,5.614,5.283,1.79,8.555   c-6.796,6.38-2.5,16.846,5.057,19.566c8.221,4.261,16.416,7.947,25.907,8.015c-0.453-3.479-2.268-5.895-6.554-5.586   c-3.303,0.239-5.903-0.858-8.554-2.973c-4.177-3.9-12.342-5.68-14.662-11.032c1.185-5.559,10.887-5.393,5.675-12.474   c-7.843-13.37-14.812-25.273-19.076-40.689c5.288,1.657,11.182-0.072,12.6,5.149c-0.29,4.71,3.847,11.564,8.49,13.553   c2.304-4.174,9.478-19.873,13.076-8.604c1.105,6.083,8.75,1.763,13.036,2.661c7.506-0.576-0.84,10.854,7.712,19.237   c6.154,6.578-12.405,15.776-4.882,21.442c3.513-4.502,6.773-8.995,10.386-13.184c6.544-7.964-12.631-15.644-2.47-23.194   c10.982-11.352,27.402-3.485,32.999-21.894c1.466-4.092,2.979-4.384,6.186-1.266c4.52,3.31,15.128,17.827,21.25,20.856   c1.336,0.661,2.874-0.794,2.164-2.104c-0.046-0.084-0.098-0.163-0.159-0.235c-7.065-8.268-14.407-16.435-22.553-23.633   c-6.862-6.797-10.1,2.816-13.129,7.995c-11.507,15.935-26.831,8.183-38.52-2.63c-5.069-3.335,1.686-7.647,2.963-11.009   c0.202-0.533-0.237-1.088-0.802-1.01c-7.866,1.09-15.731,2.18-24.255,3.361c6.588-6.754,13.514-11.187,22.642-10.74   c10.248,1.106,18.742,4.511,28.938,5.3c0.173,0.013,0.236-0.229,0.078-0.301c-2.791-1.26-4.606-3.122-7.128-4.459   c-18.287-8.725-38.796-9.537-57.855-15.953c-0.459-0.155-0.413-0.828,0.063-0.922c20.896-4.147,42.001-7.263,63.227-9.068   c12.149-0.998,16.953-4.689,28.449-7.255c0.06-0.013,2.956-2.828,4.421-4.587c0.354-0.425,0.014-1.065-0.535-0.999   c-19.312,2.319-82.063,18.379-90.77,4.868c10.793-1.775,21.093-3.468,31.045-5.105c-5.741-2.099-13.581,0.736-19.05-5.632   c14.468-2.834,28.447-5.571,42.514-8.327c-17.563-0.542-35.126-1.083-52.689-1.624c-0.706-0.022-0.758-1.043-0.059-1.144   c17.281-2.483,33.708-8.746,51.31-10.053c-5.848-1.031-12.231,0.45-17.843-1.138c-12.99-4.971-25.995-1.74-39.299-0.43   c-0.361,0.036-0.521-0.457-0.206-0.638c21.282-12.205,47.554-12.317,68.86-24.945c-15.973,0.21-32.041-0.209-46.88,7.559   c-1.422-7.449-1.696-7.693-8.752-5.903c-5.514,1.398-10.898,3.31-16.389,4.803c-0.241,0.065-0.384-0.276-0.171-0.404   c12.282-7.377,25.256-13.137,39.242-16.945c-6.661-0.05-13.301,0.201-19.933,0.597c-3.318-0.106-12.468,3.615-10.609-2.969   c2.359-5.833,5.513-7.848,11.779-7.009c18.644,2.416,37.163,5.875,55.99,6.614c-12.766-10.605-29.093-15.373-42.849-25.26   c5.075-3.299,9.987-5.819,14.078-9.303c6.904-6.522,14.369-10.852,23.845-11.455c-9.143-3.061-17.794-3.141-26.745,0.215   c14.251-26.888,40.059-31.159,66.583-39.403c0.439-0.137,0.34-0.79-0.12-0.79l-22.712,0c-0.503,0-0.646-0.69-0.183-0.889   c9.403-4.043,18.806-8.087,28.208-12.131c0.333-0.143,0.319-0.616-0.018-0.749c-11.83-4.677-26.956,9.24-32.22,3.634   c-4.418-4.579-6.632,4.604-10.337,5.757c-11.835,6.049-22.042,13.925-29.811,24.832c-2.132,2.743-4.821,5.235-7.893,6.914   c-0.342,0.187-0.731-0.176-0.559-0.525c6.089-12.333,17.086-17.963,13.907-33.993c-2.763,11.769-11.637,18.126-19.276,26.504   c-3.624,4.323-16.868,6.772-12.408-2.58c2.947-5.841,6.301-11.476,9.31-17.285c-7.456,6.934-14.911,13.868-22.367,20.801   c-0.223,0.207-0.579-0.001-0.508-0.297c1.504-6.237,3.008-12.473,4.513-18.71c-7.307,12.841-14.614,25.681-21.921,38.522   c-0.188,0.331-0.605,0.452-0.942,0.274c-0.335-0.178-0.463-0.588-0.297-0.929c5.437-11.139,6.324-22.492,3.465-35.128   c-0.615,22.748-11.174,40.097-26.529,54.886c0.384-3.31,1.82-6.487,1.713-9.611c-0.698-7.558,2.795-14.334,4.298-21.081   c-5.045,7.293-10.116,14.622-15.183,21.947c0.816-6.236,1.632-12.472,2.448-18.708c-3.896,3.48-7.701,6.879-12.404,11.08   c1.087-8.551,2.016-15.859,2.945-23.167c-13.693,16.447-7.799,35.988-19.26,43.265c-0.542,0.344-1.251-0.088-1.206-0.729   c0.558-7.854,1.118-15.701,1.642-23.05c-7.365,5.948-11.564,15.312-16.543,24.359c0.418-12.89,2.804-25.518,0.115-38.264   c-3.199,11.73-6.397,23.459-9.596,35.189c-0.096,0.351-0.597,0.355-0.703,0.007c-5.432-17.769-7.124-33.959-5.932-52.915   c-1.753,4.215-2.673,7.909-4.675,10.872c-2.602,3.853-2.249,7.823-2.389,12.032c-0.911,13.158-0.061,26.712-4.435,39.331   c-1.832-7.679-3.365-14.747-9.089-20.253c-1.211-1.165-1.769-3.396-1.926-5.197c-0.976-14.043-0.161-28.186-7.339-40.992   c0,6.145-1.157,12.323,0.236,17.861c4.223,17.084,1.834,34.215-0.943,51.192c-2.591-16.648,0.071-33.623-8.019-49.099v33.418   c-2.137-2.3-4.088-4.401-6.04-6.503c-0.769-0.222-0.846-1.067-0.634-1.832c1.515-5.483,0.343-10.184-2.827-15.014   c-13.893-18.253-7.455-43.778-19.443-62.669c-0.409-0.644-1.399-0.459-1.547,0.289c-0.983,4.985-1.966,9.97-2.949,14.955   c-7.619-14.409-17.412-26.907-26.553-40.323c-0.733-1.042-2.377-1.55-3.693-2.058C90.243,70.465,82.22,57.475,71.642,46.184   c-0.956,8.748,2.608,14.594,6.685,20.448c-12.316-7.478-24.632-14.956-36.947-22.434c-0.843-0.512-1.676,0.663-0.915,1.289   c10.365,8.535,20.632,17.193,31.094,25.608c1.63,1.311,2.555,2.228,1.435,4.266c-1.292,2.353,0.037,3.052,2.121,4.075   c5.544,2.722,10.856,5.916,17.285,9.493c-6.708,4.1-12.311,7.524-17.913,10.949c6.554,1.485,17.762-9.22,22.949-4.131   c5.423,5.513,10.924,10.928,10.263,19.418c-0.079,1.02-0.061,2.05,0.053,3.067c0.536,4.811,0.902,9.177,1.345,14.687   c0.045,0.558-0.573,0.924-1.044,0.621c-7.962-5.112-10.138-13.322-14.861-19.483c-0.312-0.407-0.953-0.073-0.791,0.413   c3.099,9.314,6.195,18.614,9.58,28.782c-5.189-1.642-8.195-4.437-10.054-8.459c-0.103-0.223-0.44-0.126-0.404,0.118   c2.203,14.597,17.483,22.887,20.775,37.233c0.068,0.296-0.339,0.452-0.489,0.188c-6.437-11.33-15.753-19.125-27.073-24.649   c9.747,13.663,23.569,25.02,29.921,40.648c0.172,0.422-0.352,0.795-0.7,0.5c-8.166-6.925-10.166-19.163-20.695-23.494   c1.977,3.662,4.794,6.841,4.829,11.078c0.004,0.427-0.324,0.797-0.751,0.796c-8.535-0.039-19.931-8.915-28.615-11.574   c0.428,2.486,2.189,3.158,3.762,4.62c13.95,9.714,16.198,14.822,22.605,30.323c-5.105-1.78-9.152-3.191-12.623-4.402   c7.975,11.189,20.604,18.994,28.474,30.097c-15.786-8.672-31.161-18.126-48.446-23.565c-3.274-1.03-6.328-2.665-9.003-4.815   c-2.674-2.15-5.222-4.523-8.019-6.325c6.873,24.307,27.877,40.303,42.279,59.906c-11.797-3.692-21.757-12.031-34.361-13.898   c8.133,8.967,19.103,13.943,28.75,21.133c-5.743,2.816-12.259,3.148-19.045,0.037c-14.962-6.804-29.232-15.091-44.474-21.312   c15.395,12.688,30.578,25.675,51.263,30.199c0.485,0.106,0.556,0.764,0.101,0.964c-7.802,3.424,4.452,13.097-5.172,13.368   c-1.887,0.053-4.061-0.488-5.597,0.235c-8.443,3.973-17.574-10.716-24.627,0.682c-12.548,24.938-13.141,9.684-34.59-6.47   c0.179,2.388,0.752,4.472,2.046,5.905c7.24,5.86,19.599,29.293,28.521,14.654c3.744-4.777,6.06-15.388,13.885-13.361   c3.111,1.177,7.121,1.717,7.998,5.709c0.279,1.271,0.934,2.445,2.005,3.184c3.833,2.646,8.11,2.115,11.95,10.001   c-30.644-7.159-20.415-5.039-44.205,17.188c32.502-21.243,12.938-19.539,50.04-10.705c-3.847,4.756-14.713,4.089-8.351,13.771   c-13.222,8.19-28.761,3.604-42.067,9.247c15.119,1.425,30.25,2.852,45.22,4.263c-0.147,16.284-25.31,17.863-35.259,9.559   c-7.304-6.963-12.025,5.618-16.273,10.155c6.279-1.267,10.736-10.175,16.943-4.331c1.391,1.313,3.589,2.299,5.494,2.441   c10.965,1.927,23.661-3.198,32.891,4.685c-13.616,13.611-32.68,12.035-50.497,10.661c1.274,8.475,11.535,4.023,17.27,5.329   c17.971,1.821,32.35-11.763,48.959-16.23c4.294-0.92,6.482,2.386,4.143,5.848c-3.377,4-8.175,6.015-13.242,7.001   c-9.662,2.744-4.288,14.026-4.402,21.208c0.587,5.963-0.221,6.971-6.197,7.178c-6.256,0.217-12.533-0.16-18.785,0.171   c26.498,7.511,33.243,9.194,27.484-16.48c-0.417-11.745,30.818-8.844,39.667-10.781c-3.592,9.712-7.718,18.167-11.95,27.467   c-3.244,6.764-10.072,10.669-15.502,15.513c4.887-1.017,12.995,0.086,14.272-4.434c1.513-5.353,4.618-6.289,7.095-9.289   c9.089-10.617,17.324-22.017,27.134-31.979c3.704,17.919-13.959,42.7-4.335,58.214c-0.44-3.686-2.259-7.673-0.64-11.26   c6.382-13.748,13.95-26.853,22.092-39.629c-3.396,15.531-6.792,31.061-10.189,46.592c6.667-14.254,13.334-28.508,20.001-42.762   c-0.162,19.726-7.641,38.563-7.8,58.072c7.199-16.928,14.501-34.098,22.118-52.009c1.229,4.84,2.169,8.541,3.163,12.453   c1.491-3.728,3.087-7.717,4.121-10.302c6.657,9.37,19.375,16.478,18.38,29.443c-0.179,8.519-0.64,17.139-5.508,24.74   c-7.203,26.579-1.848,50.529-24.523,72.247c-7.845-17.808-10.159-14.751-27.481-12.382c-16,1.942-31.696-3.776-47.627-3.387   c-1.06,0.026-1.532,1.353-0.73,2.048c4.952,4.294,9.937,8.616,15.412,13.364c-9.968-0.223-15.905-7.469-23.799-10.832   c-2.615,21.381-15.927-11.916-22.66-13.873c-8.289-3.381-16.835-6.229-25.455-8.668c-6.937-1.963-9.001-0.685-12.586,5.536   c-2.536,3.753-5.363,6.635-0.754,9.964c11.442,5.461,5.727,6.649,3.729,16.607c-0.185,0.922,0.95,1.506,1.586,0.814   c12.56-13.676,9.981-7.641,26.724-0.248c-7.756,9.235-18.911,8.494-28.234,13.988c11.71-0.889,21.683-8.144,32.51-1.378   c11.415,1.702,22.981,5.337,32.231,12.278c-13.889,2.275-28.03,4.592-42.182,6.91c-0.86,0.141-0.714,1.412,0.155,1.356   c23.477-1.526,47.007-2.067,70.513-2.989c1.238-0.042,3.486,0.559,3.593,1.161c0.548,4.017,7.581,3.673,10.784,6.208   c-0.01,0.544-0.014,0.761-0.024,1.305c-9.172,6.222-22.348,3.857-27.162,16.043c11.127,1.526,21.065-2.036,31.955-3.026   c7.193-1.444,14.434,0.985,21.499,1.144c20.389-1.103,40.877-12.026,59.497,1.732c1.324,0.887,4.471,0.869,5.584-0.098   c5.432-4.201,11.764-0.225,17.936-1.905c18.003-2.549,35.99-0.691,54.023,0.425c14.08,0.323,27.907,2.179,41.621,5.344   c1.884,0.353,3.9,0.811,4.631-1.858c2.252-12.333-19.667-0.836-19.575-12.279c-0.343-5.565-0.363-5.559-5.939-5.453   c-6.892,0.017-13.916-0.23-20.292-3.256c-0.75-0.356-0.625-1.467,0.193-1.613c19.955-3.569,40.638-2.035,60.787-0.91   c9.769,0.546,18.75-4.574,28.032-5.71c0.58-0.071,0.644-0.878,0.081-1.033c-7.638-2.096-15.519-4.711-23.448-2.724   c-7.337,2.536-15.533-1.474-18.674-7.98c31.767-6.211,61.169-16.461,92.563-23.538c-0.067-0.414-0.04-0.246-0.106-0.66   c-27.981,2.828-55.53,9.236-84.336,10.256c5.615-4.508,12.478-7.414,17.951-11.281c0.955-0.675,1.008-2.075,0.119-2.835   l-0.039-0.034c-0.694-0.594-1.713-0.559-2.391,0.053c-5.916,5.341-14.427,4.659-21.931,6.016   c-6.049,0.945-12.077,2.031-18.113,3.064c-0.429,0.073-0.84-0.207-0.928-0.633l-0.003-0.016c-0.093-0.446,0.203-0.875,0.652-0.954   c11.375-1.993,21.858-6.624,30.696-13.783c0.263-0.213,0.036-0.643-0.289-0.546c-13.772,4.125-27.659,9.221-41.803,12.232   c-6.175,1.104-7.505-0.391-5.244-6.21c3.453-8.886,7.401-17.579,11.253-26.62c1.918,3.12,3.786,6.159,5.654,9.197   c1.212-6.175-3.245-17.759,6.582-17.005c14.632,0.16,38.425,17.902,47.319-0.475c1.455-5.655,3.023-11.321,3.869-17.081   c0.657-4.474,2.605-6.957,7.298-7.248l-1.392-5.69c-0.086-0.353,0.088-0.717,0.416-0.871c0.328-0.155,0.72-0.057,0.937,0.234   c3.415,4.572,6.83,9.144,10.247,13.716c0.243,0.325,0.774,0.224,0.851-0.174c1.415-7.345-12.946-17.391-3.03-22.538   c11.05-5.102,8.997,19.131,16.056,20.391c-0.65-4.98-1.288-9.86-2.02-15.456c5.454,3.191,10.5,6.144,16.217,9.489   c-0.862-11.128-7.828-16.83-15.88-22.36c15.488-6.239,52.182-13.667,12.68-20.229C441.688,392.821,446.075,385.155,452.288,377.56z    M207.445,490.134c-1.963,6.543-2.553,13.31-3.268,20.063c0.544,10.006-4.408,14.613-14.024,10.435   c5.657-10.456,11.149-20.607,16.648-30.77C207.004,489.486,207.568,489.725,207.445,490.134z M298.871,496.177   c-0.655,12.818-9.576,19.491-22.267,16.665c-6.239-3.485-7.116-12.389-10.073-18.422c-3.529-7.595-0.896-15.573,0.202-23.4   c0.127-0.903,1.178-1.331,1.904-0.778c8.244,6.279,16.569,12.456,24.674,18.91C295.61,490.984,299.74,491.703,298.871,496.177z"></path>
	<path id="_x23_6FCCDD" fill="#000000" d="M154.165,265.089c-13.618,0-24.697,11.079-24.697,24.697   c0,13.618,11.079,24.697,24.697,24.697s24.697-11.079,24.697-24.697C178.861,276.168,167.783,265.089,154.165,265.089z    M154.165,306.038c-8.976,0-16.253-7.277-16.253-16.253c0-8.976,7.277-16.253,16.253-16.253s16.253,7.277,16.253,16.253   C170.417,298.762,163.141,306.038,154.165,306.038z M255.932,289.786c0-13.618-11.079-24.697-24.697-24.697   c-13.618,0-24.697,11.079-24.697,24.697c0,13.618,11.079,24.697,24.697,24.697C244.853,314.482,255.932,303.403,255.932,289.786z    M231.234,306.038c-8.976,0-16.253-7.277-16.253-16.253c0-8.976,7.277-16.253,16.253-16.253c8.976,0,16.253,7.277,16.253,16.253   C247.487,298.762,240.211,306.038,231.234,306.038z"></path>
	<path id="_x23_F2F2F3" fill="#816792" d="M199.029,290.092c0.4,52.435,81.601,55.269,85.551,1.633   C288.862,233.582,198.607,234.755,199.029,290.092z M258.631,298.621c-0.241,0.744-0.509,1.476-0.807,2.192   c-2.255,5.416-6.12,9.997-10.992,13.151c-1.047,0.677-2.137,1.293-3.271,1.832c-3.739,1.779-7.918,2.778-12.326,2.778   c-15.874,0-28.789-12.914-28.789-28.788s12.915-28.789,28.789-28.789c4.418,0,8.605,1.003,12.35,2.789   c0.807,0.385,1.592,0.808,2.356,1.264c4.992,2.979,9.006,7.425,11.453,12.739c0.354,0.768,0.677,1.552,0.963,2.355   c1.076,3.016,1.666,6.261,1.666,9.642C260.023,292.867,259.531,295.835,258.631,298.621z M141.495,246.638   c-57.026-0.553-54.296,83.131,1.034,83.359C200.444,330.236,201.473,247.22,141.495,246.638z M182.953,289.786   c0,15.874-12.915,28.788-28.789,28.788c-5.908,0-11.405-1.791-15.98-4.856c-0.82-0.549-1.61-1.138-2.368-1.766   c-3.855-3.196-6.864-7.377-8.641-12.152c-0.166-0.447-0.323-0.9-0.467-1.357c-0.864-2.734-1.332-5.641-1.332-8.657   c0-3.17,0.523-6.218,1.473-9.073c0.191-0.573,0.399-1.138,0.624-1.695c1.371-3.386,3.367-6.451,5.846-9.057   c0.633-0.665,1.297-1.3,1.991-1.903c5.055-4.393,11.647-7.062,18.855-7.062C170.039,260.997,182.953,273.912,182.953,289.786z"></path>
	<path id="_x23_ED2024" fill="#333333" d="M123.079,299.934c-0.054-0.013-0.115-0.033-0.17-0.047   c-1.399,0.596-3.265,1.044-4.452,1.061c-0.924,0.015-2.117,0.021-3.441-0.01c-1.325-0.031-2.508-0.078-3.42-0.124   c-1.62-0.074-4.379-0.924-5.713-1.398c-0.141-0.05-0.108-0.4,0.038-0.424c1.4-0.225,4.226-0.702,5.719-0.634   c0.915,0.047,2.104,0.094,3.43,0.126c1.326,0.031,2.506,0.024,3.411,0.007c0.231-0.004,0.501,0.009,0.784,0.027   c-1.059-0.502-1.983-1-2.685-1.422c-0.676-0.363-1.481-1.12-2.252-1.866c-0.752-0.773-1.425-1.598-1.868-2.129   c-0.092-0.113,0.121-0.392,0.257-0.339c0.649,0.247,1.606,0.65,2.57,1.06c0.981,0.382,1.931,0.835,2.597,1.192   c0.734,0.444,1.71,0.96,2.82,1.471c1.116,0.488,2.133,0.862,2.926,1.057c0.7,0.209,1.624,0.536,2.572,0.791   c0.168,0.044,0.337,0.077,0.506,0.111c0.145,0.457,0.301,0.91,0.467,1.357c-0.328,0.098-0.668,0.183-1.022,0.235   C125.022,300.195,123.835,300.16,123.079,299.934z M107.17,279.103c0.458-0.012,1.035-0.026,1.672-0.042   c0.631-0.011,1.33,0.045,2.017,0.051c1.385,0.074,2.767,0.19,3.738,0.209c1.187-0.005,2.735,0.091,4.463,0.268   c1.726,0.208,3.267,0.453,4.444,0.694c0.864,0.156,2.091,0.297,3.345,0.431c0.191-0.573,0.399-1.138,0.624-1.695   c-1.271-0.526-2.583-0.982-3.599-1.166c-1.202-0.241-2.774-0.492-4.541-0.704c-1.772-0.184-3.371-0.28-4.611-0.283   c-1.098-0.019-2.61,0.197-4.04,0.552c-0.713,0.208-1.412,0.386-2.029,0.622c-0.606,0.249-1.153,0.473-1.587,0.651   C106.885,278.767,106.976,279.107,107.17,279.103z M127.78,260.501c0.404,0.315,0.926,0.723,1.51,1.179   c0.584,0.456,1.106,0.864,1.51,1.179c0.476,0.372,1.365,0.693,2.152,0.926c-0.034,1.185-0.036,2.245-0.032,3.097   c0.002,0.817,0.174,1.948,0.399,3.08c0.633-0.665,1.297-1.3,1.991-1.903c0.039-0.467,0.065-0.909,0.065-1.284   c-0.005-1.028-0.001-2.361,0.063-3.833c0.031-0.736,0.077-1.429,0.137-2.056c0.053-0.635,0.118-1.307,0.125-1.848   c0.033-0.98-0.178-2.335-0.597-3.579c-0.415-1.249-1.025-2.37-1.529-3.034c-0.111-0.145-0.418,0.028-0.385,0.181   c0.164,0.767,0.256,1.956,0.232,3.128c-0.018,1.176-0.151,2.336-0.173,3.148c-0.009,0.508-0.055,1.046-0.114,1.722   c-0.034,0.361-0.064,0.739-0.09,1.128c-0.237-0.324-0.477-0.609-0.7-0.782c-0.412-0.321-0.947-0.739-1.545-1.206   c-0.598-0.467-1.133-0.884-1.545-1.205c-0.673-0.525-2.331-0.976-3.16-1.178c-0.087-0.021-0.303,0.256-0.262,0.335   C126.227,258.449,127.064,259.943,127.78,260.501z M135.32,312.024l-3.205,0.604l-0.737,0.554c-1.116,0.839-2.115,1.59-2.886,2.17   c-1.367,1.027-3.347,3.345-4.302,4.503c-0.1,0.122,0.111,0.403,0.256,0.34c1.383-0.6,4.17-1.864,5.456-2.831   c0.393-0.295,0.844-0.635,1.34-1.007c-0.143,0.394-0.253,0.766-0.289,1.065c-0.072,0.603-0.166,1.387-0.271,2.264   c-0.105,0.876-0.199,1.66-0.271,2.264c-0.118,0.986,0.323,2.896,0.564,3.836c0.025,0.098,0.374,0.14,0.422,0.051   c0.456-0.853,1.332-2.598,1.457-3.646c0.071-0.592,0.162-1.358,0.265-2.213s0.194-1.622,0.265-2.213   c0.087-0.725-0.097-1.854-0.299-2.794l0.048-0.036l2.723-0.513c0.635-0.12,1.469-0.388,2.328-0.703   c-0.82-0.549-1.61-1.138-2.368-1.766C135.645,311.974,135.472,311.995,135.32,312.024z M261.287,279.849   c0.734-0.059,1.427-0.097,2.057-0.114c0.637-0.025,1.311-0.042,1.849-0.1c0.977-0.086,2.296-0.46,3.48-1.027   c1.19-0.563,2.228-1.305,2.826-1.886c0.13-0.128-0.078-0.411-0.226-0.36c-0.741,0.256-1.911,0.492-3.077,0.611   c-1.17,0.125-2.337,0.134-3.145,0.211c-0.505,0.053-1.045,0.072-1.723,0.096c-0.363,0.01-0.741,0.026-1.131,0.048   c0.293-0.275,0.546-0.548,0.691-0.789c0.269-0.448,0.618-1.03,1.009-1.68c0.39-0.65,0.74-1.232,1.009-1.68   c0.44-0.732,0.686-2.433,0.785-3.28c0.01-0.089-0.291-0.27-0.365-0.219c-0.7,0.483-2.081,1.495-2.548,2.273   c-0.264,0.439-0.605,1.007-0.986,1.642c-0.381,0.635-0.723,1.203-0.986,1.642c-0.311,0.518-0.522,1.439-0.658,2.248   c-1.038,0.097-1.968,0.206-2.755,0.304c0.354,0.768,0.677,1.552,0.963,2.355C259.215,280.041,260.21,279.934,261.287,279.849z    M274.56,308.047c-1.148-0.834-3.453-2.536-4.815-3.15c-0.838-0.371-1.92-0.867-3.117-1.438c-1.197-0.572-2.247-1.111-3.047-1.535   c-0.205-0.108-0.451-0.218-0.712-0.33c1.172,0.031,2.22,0.004,3.038-0.056c0.767-0.018,1.827-0.33,2.852-0.647   c1.02-0.35,1.993-0.782,2.629-1.056c0.133-0.059,0.069-0.404-0.076-0.419c-0.691-0.073-1.727-0.146-2.772-0.215   c-1.047-0.102-2.1-0.127-2.855-0.11c-0.856,0.064-1.96,0.084-3.18,0.038c-1.216-0.069-2.292-0.195-3.088-0.38   c-0.236-0.043-0.505-0.086-0.787-0.13c-0.241,0.744-0.509,1.476-0.807,2.192c0.36,0.148,0.706,0.269,1.003,0.322   c0.054,0.013,0.117,0.023,0.173,0.035c0.978,1.164,2.441,2.406,3.492,2.958c0.817,0.43,1.879,0.975,3.075,1.546   c1.196,0.571,2.272,1.064,3.107,1.434c1.479,0.666,4.324,1.154,5.728,1.334C274.55,308.462,274.679,308.135,274.56,308.047z    M250.366,316.621c-0.771-0.58-1.77-1.331-2.886-2.17l-0.648-0.487c-1.047,0.677-2.137,1.293-3.271,1.832l2.165,0.408l0.048,0.036   c-0.202,0.94-0.386,2.069-0.299,2.794c0.071,0.592,0.162,1.357,0.265,2.213c0.102,0.856,0.194,1.622,0.265,2.213   c0.125,1.048,1.001,2.793,1.457,3.646c0.048,0.09,0.397,0.048,0.422-0.051c0.241-0.94,0.682-2.85,0.564-3.836   c-0.072-0.603-0.166-1.387-0.271-2.264c-0.105-0.876-0.199-1.66-0.271-2.264c-0.036-0.299-0.146-0.672-0.289-1.065   c0.496,0.373,0.947,0.712,1.34,1.007c1.286,0.967,4.073,2.23,5.456,2.831c0.145,0.063,0.356-0.218,0.256-0.34   C253.713,319.966,251.733,317.648,250.366,316.621z M259.726,257.055c0.176-0.082,0.107-0.427-0.088-0.416   c-0.468,0.032-1.058,0.071-1.711,0.115c-0.658,0.06-1.364,0.209-2.096,0.337c-1.44,0.312-2.892,0.784-3.869,1.286   c-1.112,0.55-2.504,1.341-4.013,2.288c-1.493,0.969-2.793,1.887-3.765,2.635c-0.191,0.141-0.393,0.31-0.598,0.487   c0.807,0.385,1.592,0.808,2.356,1.264c0.906-0.683,2.039-1.477,3.328-2.316c1.472-0.92,2.82-1.69,3.887-2.209   c0.864-0.444,2.052-1.158,3.263-1.836c0.613-0.308,1.216-0.667,1.788-0.935C258.786,257.488,259.31,257.247,259.726,257.055z"></path>
</g>
<path id="_x23_333333_00000098195600791638705810000008262223671205793430_" fill="#333333" d="M139.01,26.334  c0,3.838,0.054,10.608,0.054,14.499c0,0.8-0.373,1.493-0.853,2.079c-0.373,0.373-0.8,0.587-1.386,0.8  c-0.161,0.054-0.48,0.054-0.746,0.054c-0.427,0.106-0.8,0-1.066-0.267c-0.48-0.107-0.64-0.213-1.013-0.587  c-0.266-0.267-0.426-0.586-0.639-0.906c-0.107-0.373-0.213-0.8-0.213-1.173c0-2.239,0-4.425-0.106-6.557  c0-3.891,0-10.608-0.107-14.553c0-3.838,0-11.088-0.054-14.979c0-0.8,0.373-1.492,0.854-2.132c0.373-0.373,0.799-0.533,1.386-0.8  c0.16-0.054,0.48-0.054,0.746-0.054c0.427-0.053,0.799,0,1.172,0.32c0.373,0.053,0.693,0.16,0.906,0.533  c0.267,0.267,0.587,0.64,0.64,0.959c0.106,0.373,0.266,0.8,0.266,1.173c0,2.239,0.054,7.623,0.054,9.862  C138.904,18.498,139.01,22.389,139.01,26.334z M167.475,37.155c-0.427-0.533-1.066-1.173-1.813-1.279c-0.213,0-0.48,0-0.8-0.213  c-0.533,0-1.013,0.267-1.492,0.48c-0.373,0.267-0.693,0.48-1.066,0.587c-0.32,0.16-0.587,0.32-1.066,0.373c-0.48,0-0.854,0-1.333,0  c-0.427-0.054-0.906-0.32-1.172-0.373c-0.373-0.107-0.694-0.32-0.96-0.587c-0.267-0.16-0.533-0.48-0.746-0.639  c-0.32-0.427-0.533-0.746-0.693-1.173c-0.373-1.013-0.48-1.813-0.693-2.825c-0.16-1.173-0.16-2.399-0.16-3.572  c-0.107-1.653-0.107-3.359-0.107-4.958c0-0.32,0-0.8,0-1.173c0.373,0,0.746,0,1.12-0.107c1.013-0.053,2.079-0.106,3.038-0.106  c0.427,0,0.853-0.16,1.173-0.267c0.373-0.267,0.693-0.373,1.013-0.693c0.16-0.32,0.48-0.693,0.533-0.906  c0.267-0.373,0.32-0.746,0.267-1.119c0-0.32,0-0.64-0.054-0.906c-0.213-0.48-0.48-0.906-0.746-1.279  c-0.213-0.16-0.48-0.32-0.639-0.426c-0.427-0.32-0.96-0.373-1.546-0.373c-1.332,0.053-2.665,0.107-4.051,0.213  c0.053-0.853,0.053-1.759,0.16-2.666c0.106-1.812,0.213-3.678,0.32-5.597c0-0.32-0.054-0.746-0.213-1.12  c-0.213-0.32-0.373-0.586-0.586-0.853c-0.373-0.373-0.64-0.48-1.067-0.64c-0.372-0.213-0.639-0.373-1.119-0.373  c-0.16,0.16-0.48,0.16-0.746,0.267c-0.479,0.053-0.96,0.32-1.279,0.746c-0.267,0.106-0.373,0.32-0.427,0.533  c-0.373,0.533-0.533,1.013-0.533,1.439c-0.16,2.932-0.426,5.81-0.479,8.689c-0.267,0.107-0.48,0.107-0.746,0.107  c-1.013,0.053-2.026,0.16-2.985,0.267c-0.427,0-0.853,0.107-1.173,0.213c-0.32,0.054-0.639,0.373-0.959,0.64  c-0.267,0.213-0.48,0.533-0.587,0.906c-0.213,0.373-0.267,0.746-0.213,1.173c0,0.267,0,0.587,0.054,0.746  c0.106,0.586,0.32,1.013,0.746,1.386c0.16,0.107,0.48,0.32,0.639,0.427c0.427,0.32,0.96,0.426,1.493,0.426  c1.226-0.054,2.398-0.107,3.678-0.267c0,1.546,0,3.092,0,4.691c0.054,1.386,0.054,2.825,0.32,4.105  c0.053,1.546,0.213,3.092,0.799,4.584c0.16,0.8,0.533,1.652,1.12,2.346c0.16,0.533,0.533,0.959,0.853,1.386  c0.267,0.213,0.373,0.373,0.639,0.64c1.12,1.12,2.453,1.866,3.998,2.399c0.48,0.213,1.013,0.32,1.599,0.48  c0.746,0.053,1.546,0.107,2.346,0.107c0.746-0.054,1.653-0.107,2.453-0.426c0.16-0.054,0.48-0.16,0.746-0.267  c0.427-0.16,0.906-0.427,1.387-0.64c0.213-0.16,0.533-0.267,0.639-0.427c0.373-0.16,0.693-0.48,0.8-0.746  c0.32-0.32,0.426-0.587,0.533-1.066c0.213-0.32,0.213-0.8,0.106-1.173C167.795,37.902,167.688,37.475,167.475,37.155z   M171.843,6.664c0,2.079,0.639,3.785,0.427,4.958c-0.32,1.759,0.639,2.985,2.452,2.612c2.559-0.587,3.358-5.544,2.932-7.996  C176.908,2.612,171.843,3.412,171.843,6.664z M203.293,12.314c-0.426-0.48-0.853-0.8-1.332-1.173  c-0.693-0.587-1.279-1.013-2.079-1.492c-0.48-0.267-1.013-0.64-1.599-0.746c-0.746-0.373-1.546-0.693-2.292-0.853  c-0.799-0.267-1.653-0.426-2.559-0.426c-0.853-0.053-1.599,0.16-2.398,0.213c-0.533,0.053-1.12,0.267-1.599,0.48  c-0.8,0.32-1.6,0.64-2.293,1.066c-0.586,0.533-1.172,0.906-1.599,1.546c-0.533,0.587-1.066,1.173-1.332,1.919  c-0.32,0.746-0.693,1.439-0.693,2.186c-0.161,0.48-0.213,0.959-0.213,1.439c0,0.586,0.053,1.013,0.213,1.546  c0,0.8,0.266,1.493,0.639,2.133c0.32,0.746,0.693,1.226,1.172,1.812c0.267,0.373,0.64,0.64,1.013,1.013  c0.533,0.426,1.172,0.906,1.759,1.226c1.705,1.066,3.518,1.866,5.278,2.985c0.053,0.054,0.213,0.16,0.32,0.267  c0.639,0.373,1.12,1.013,1.653,1.653c0.373,0.48,0.693,0.959,0.959,1.492c0.16,0.533,0.373,1.066,0.427,1.439  c0,0.587,0,1.013,0,1.493c-0.054,0.426-0.213,0.746-0.32,1.173c-0.213,0.32-0.32,0.586-0.587,0.906  c-0.106,0.16-0.267,0.32-0.587,0.587c-0.266,0.16-0.533,0.373-0.853,0.48c-0.32,0.16-0.746,0.213-1.226,0.32  c-0.373,0.107-0.853,0.107-1.279,0c-0.373-0.107-0.853-0.16-1.226-0.373c-0.427-0.16-0.854-0.426-1.173-0.693  c-0.533-0.426-0.853-0.8-1.332-1.279c-0.32-0.48-0.64-1.066-0.906-1.599c0-0.107-0.107-0.16-0.107-0.32  c-0.053-0.32-0.266-0.693-0.533-0.906c-0.266-0.32-0.426-0.64-0.853-0.746c-0.32-0.32-0.693-0.426-1.066-0.48  c-0.48-0.107-0.8,0-1.172,0.054c-0.32,0.106-0.48,0.213-0.694,0.426c-0.586,0.267-0.853,0.586-1.172,0.959  c-0.106,0.267-0.16,0.587-0.267,0.693c-0.16,0.587-0.16,1.12,0,1.706c0.267,0.853,0.64,1.706,1.066,2.452  c0.48,0.746,1.067,1.493,1.6,2.132c0.639,0.746,1.279,1.279,2.132,1.813c0.426,0.426,0.959,0.746,1.546,1.013  c0.906,0.426,1.706,0.746,2.613,0.906c0.799,0.16,1.652,0.267,2.612,0.267c0.639-0.107,1.12-0.213,1.705-0.267  c0.267,0,0.587-0.054,0.96-0.16c0.48-0.16,1.066-0.427,1.493-0.693c0.426-0.053,0.693-0.267,0.906-0.48  c0.48-0.16,0.906-0.587,1.386-0.906c0.267-0.213,0.48-0.426,0.639-0.64c0.64-0.693,1.227-1.492,1.546-2.239  c0.48-0.8,0.853-1.706,0.906-2.559c0.106-0.906,0.266-1.866,0.16-2.825c-0.054-0.906-0.106-1.919-0.427-2.719  c-0.16-0.64-0.373-1.119-0.639-1.706c-0.107-0.267-0.32-0.586-0.427-0.906c-0.48-0.8-1.12-1.492-1.653-2.185  c-0.426-0.533-1.013-1.013-1.492-1.439c-0.693-0.693-1.493-1.173-2.239-1.653c-0.533-0.373-1.12-0.64-1.653-0.959  c-1.119-0.533-2.238-1.12-3.145-1.706c-0.16-0.107-0.32-0.32-0.427-0.373c-0.32-0.16-0.586-0.373-0.799-0.693  c-0.107-0.213-0.213-0.427-0.267-0.587c-0.053-0.213-0.053-0.32-0.213-0.426c0-0.213,0-0.426,0-0.533  c0.161-0.213,0.213-0.48,0.213-0.8c0.16-0.213,0.267-0.373,0.427-0.64c0.213-0.16,0.32-0.32,0.48-0.48  c0.267-0.16,0.587-0.32,0.746-0.373c0.479-0.213,0.746-0.267,1.173-0.426c0.586,0,1.066,0,1.599,0  c0.586,0.16,1.226,0.32,1.705,0.587c0.8,0.267,1.493,0.693,2.346,1.279c0.32,0.267,0.746,0.693,1.12,1.066  c0.32,0.267,0.587,0.48,0.959,0.533c0.373,0.213,0.694,0.32,1.12,0.32c0.427,0,0.8-0.107,1.279-0.32  c0.213-0.053,0.587-0.267,0.853-0.533c0.213-0.213,0.373-0.426,0.427-0.64c0.373-0.426,0.427-1.013,0.427-1.492  c0-0.213-0.054-0.48-0.054-0.8C203.88,13.167,203.666,12.74,203.293,12.314z M244.761,2.026c-3.625,0.054-7.197,0.054-10.874,0.16  c-0.853,0-1.599,0-2.453,0.053c-0.959,0-1.919,0.213-2.825,0.48c-0.587,0.053-1.066,0.373-1.599,0.533  c-0.533,0.32-1.013,0.64-1.386,1.066c-0.48,0.373-0.8,0.746-1.333,1.226c-0.106,0.32-0.213,0.587-0.426,0.96  c-0.161,0.48-0.427,0.906-0.533,1.546c-0.213,0.427-0.267,0.853-0.32,1.386c-0.053,0.853-0.213,1.653-0.213,2.452  c0.16,1.706,0.213,3.465,0.266,5.224c0.054,2.239,0.267,4.531,0.373,6.77c-0.054,0.32,0,0.693,0.054,1.013  c0,1.013,0.053,2.132,0.213,3.092c0.373,3.678,0.587,7.356,0.96,10.875c0.16,0.426,0.213,0.906,0.213,1.333  c0,0.373,0.106,0.8,0.266,1.12c0.161,0.373,0.267,0.693,0.587,0.959c0.32,0.32,0.64,0.533,1.066,0.64  c0.267,0.213,0.64,0.267,1.013,0.267c0.799-0.053,1.652-0.32,2.132-0.906c0.16-0.16,0.373-0.373,0.48-0.586  c0.267-0.427,0.427-0.96,0.427-1.493c-0.427-4.051-0.906-8.156-1.173-12.207c0-0.48-0.16-0.959-0.16-1.439  c0.533-0.053,1.013-0.16,1.546-0.213c1.865-0.267,3.678-0.427,5.544-0.427c0.586,0,1.119,0,1.813,0c0.372,0,0.746-0.106,1.066-0.32  c0.426-0.053,0.693-0.267,0.906-0.586c0.372-0.213,0.533-0.587,0.693-0.853c0.16-0.48,0.266-0.746,0.266-1.226  c-0.106-0.267-0.106-0.533-0.213-0.8c-0.053-0.48-0.266-0.906-0.746-1.333c-0.107-0.106-0.373-0.267-0.533-0.426  c-0.48-0.267-1.013-0.373-1.439-0.373c-1.6,0-3.146,0-4.851,0.107c-1.493,0.054-2.932,0.267-4.371,0.587  c-0.054-1.706-0.107-3.305-0.267-4.798c-0.053-1.173-0.053-2.292-0.053-3.518c-0.107-0.64-0.107-1.439,0-2.185  c0.053-0.267,0.213-0.587,0.266-0.96c0.054-0.107,0.16-0.267,0.16-0.32c0.054-0.054,0.16-0.107,0.16-0.107  c0.213-0.16,0.267-0.267,0.32-0.32c0.32-0.054,0.746-0.107,1.119-0.267c0.64,0,1.279-0.054,1.866-0.054c1.066,0,1.919,0,2.932,0  c1.919-0.107,3.891-0.107,5.81-0.107c1.12,0,2.239-0.053,3.252-0.053c0.8,0,1.546-0.32,2.132-0.906  c0.373-0.213,0.48-0.533,0.587-0.906c0.213-0.32,0.32-0.746,0.32-1.173c-0.106-0.746-0.373-1.492-0.906-2.026  C246.308,2.399,245.561,2.026,244.761,2.026z M256.54,16.739c-0.32-0.32-0.639-0.587-1.066-0.64c-0.32-0.107-0.64-0.267-1.12-0.267  c-0.213,0-0.48,0.16-0.693,0.16c-0.533,0.107-1.013,0.373-1.386,0.746c-0.16,0.16-0.267,0.426-0.427,0.533  c-0.32,0.586-0.427,1.066-0.427,1.492c-0.16,3.092-0.266,6.29-0.266,9.276c-0.054,3.038-0.054,3.198-0.054,6.29  c0,1.759,0,3.465,0,5.171c0,0.48,0.054,0.853,0.267,1.226c0.053,0.267,0.32,0.587,0.533,0.853c0.32,0.373,0.639,0.48,1.013,0.693  c0.373,0.16,0.746,0.32,1.173,0.16c0.213,0,0.48,0,0.746-0.053c0.48-0.053,0.96-0.373,1.333-0.8c0.213-0.107,0.267-0.32,0.427-0.587  c0.32-0.426,0.426-0.906,0.426-1.492c0-3.038-0.053-6.13,0-9.222c0-3.092,0.054-3.199,0.16-6.29c0-1.706,0.107-3.465,0.161-5.224  c0-0.373-0.054-0.746-0.267-1.173C256.966,17.272,256.753,16.899,256.54,16.739z M257.926,6.343  c-0.106-0.48-0.266-1.013-0.746-1.386c-0.16-0.054-0.426-0.213-0.586-0.426c-0.427-0.213-0.96-0.427-1.546-0.427  c-0.32,0-0.746,0.054-1.066,0.32c-0.32,0.107-0.693,0.32-0.959,0.533c-0.373,0.32-0.48,0.64-0.694,1.066  c-0.106,0.32-0.213,0.693-0.213,1.119c0.106,0.267,0.106,0.427,0.16,0.746c0.053,0.48,0.32,1.066,0.746,1.386  c0.16,0.107,0.372,0.32,0.639,0.426c0.427,0.373,0.906,0.426,1.386,0.426c0.427,0,0.854-0.053,1.173-0.32  c0.373-0.054,0.746-0.32,0.959-0.533c0.373-0.267,0.533-0.64,0.587-0.96c0.32-0.426,0.373-0.8,0.32-1.173  C258.085,6.823,258.085,6.664,257.926,6.343z M283.459,16.525c-0.106-0.8-0.373-1.546-0.639-2.186  c-0.213-0.586-0.48-1.119-0.64-1.599l-1.066-1.439c-0.32-0.32-0.427-0.533-0.693-0.746c-0.479-0.373-0.906-0.746-1.493-0.959  c-0.479-0.267-1.12-0.533-1.653-0.586c-0.639-0.213-1.172-0.32-1.705-0.32c-0.693,0-1.279,0.107-1.866,0.32  c-0.32,0-0.693,0.053-0.959,0.267c-0.533,0.107-1.12,0.426-1.653,0.8c-0.48,0.16-1.066,0.64-1.493,0.906  c-0.533,0.48-1.12,1.013-1.599,1.546c-0.32,0.32-0.639,0.8-0.853,1.226c-0.213-0.906-0.32-1.706-0.533-2.665  c-0.054-0.32-0.16-0.64-0.48-0.96c-0.266-0.32-0.479-0.533-0.799-0.8c-0.373-0.213-0.693-0.32-1.12-0.32  c-0.426-0.054-0.746-0.054-1.172,0.053c-0.32,0.053-0.533,0.213-0.693,0.267c-0.533,0.267-0.854,0.746-1.12,1.12  c-0.054,0.267-0.16,0.48-0.373,0.64c-0.054,0.586-0.054,1.119,0,1.652c0.479,2.132,0.799,4.158,1.066,6.397  c0.373,2.559,0.693,5.224,0.906,7.836c0.266,2.718,0.427,5.49,0.639,8.263c0.054,1.492,0.107,3.038,0.213,4.531  c0,0.426,0.107,0.8,0.213,1.226c0.16,0.32,0.373,0.693,0.693,0.906c0.213,0.267,0.479,0.533,0.853,0.64  c0.373,0.107,0.746,0.213,1.173,0.213c0.32,0,0.587-0.107,0.746-0.107c0.586-0.107,1.013-0.373,1.439-0.746  c0.053-0.106,0.266-0.426,0.426-0.586c0.267-0.533,0.373-1.013,0.373-1.546c-0.106-3.625-0.373-7.25-0.639-10.928  c-0.533-2.932-0.16-5.438,0.746-7.889c0.586-1.386,1.386-2.666,2.292-3.838c0.426-0.693,0.959-1.119,1.546-1.599  c0.213-0.267,0.587-0.426,0.96-0.586l0.746-0.267h0.533c0.106,0.107,0.213,0.107,0.373,0.213c0.106,0,0.106,0.054,0.213,0.054  c0.161,0.053,0.213,0.267,0.267,0.32c0.267,0.267,0.373,0.587,0.587,0.853c0.32,0.8,0.48,1.813,0.586,2.612  c0.32,2.665,0,5.277-0.106,7.836c-0.266,2.932-0.639,5.704-0.799,8.689c-0.161,1.546-0.32,3.198-0.427,4.797  c0,0.48,0.054,0.853,0.16,1.226c0.267,0.267,0.373,0.64,0.693,0.906s0.479,0.48,0.96,0.587c0.32,0.213,0.639,0.267,1.066,0.267  c0.266,0,0.587-0.054,0.906-0.054c0.426-0.213,0.906-0.426,1.279-0.8c0.213-0.16,0.32-0.373,0.373-0.639  c0.373-0.427,0.426-0.853,0.426-1.493c0.373-3.412,0.693-6.983,1.013-10.448c0.106-1.652,0.32-3.358,0.426-5.117  c0.107-1.6,0.213-3.145,0.107-4.745C283.779,18.604,283.673,17.538,283.459,16.525z M312.135,33.211  c0.213,0.426,0.213,0.746-0.054,1.226c0,0.16-0.053,0.427-0.213,0.8c-0.213,0.426-0.32,0.906-0.587,1.386  c-0.213,0.267-0.373,0.533-0.479,0.8c-0.32,0.48-0.64,0.853-1.013,1.173c-0.587,0.693-1.226,1.226-1.919,1.759  c-0.427,0.267-1.013,0.533-1.546,0.8c-0.746,0.373-1.492,0.693-2.398,0.853c-0.479,0.213-1.12,0.213-1.546,0.267  c-0.372,0.054-0.746,0.054-0.906,0.054c-0.372,0-0.639,0-1.013-0.054c-0.426-0.053-1.12-0.053-1.599-0.267  c-0.96-0.16-1.705-0.48-2.559-0.853c-0.586-0.267-1.119-0.587-1.705-0.906c-0.64-0.533-1.333-1.12-1.972-1.706  c-0.64-0.587-1.173-1.333-1.759-1.972c-0.427-0.533-0.746-1.12-0.96-1.706c-0.587-0.8-0.906-1.653-1.173-2.612  c-0.213-0.693-0.32-1.493-0.586-2.186c-0.107-0.906-0.32-1.972-0.32-3.038c-0.053-1.759,0.213-3.518,0.373-5.224  c0.32-1.386,0.746-2.719,1.279-4.051c0.267-0.8,0.746-1.652,1.226-2.399c0.373-0.746,0.906-1.546,1.546-2.239  c0.426-0.48,0.853-0.959,1.386-1.386c0.693-0.639,1.333-1.119,2.079-1.546c0.533-0.267,1.013-0.373,1.439-0.693  c0.32-0.053,0.639-0.16,0.959-0.213c0.8-0.267,1.599-0.48,2.399-0.48c0.959-0.053,1.759,0,2.612,0.107  c0.48,0.107,1.12,0.213,1.706,0.533c0.746,0.213,1.439,0.586,2.079,1.119c0.427,0.267,0.906,0.533,1.333,1.013  c0.32,0.373,0.693,0.8,0.906,1.226c0.16,0.267,0.32,0.533,0.533,0.746c0.106,0.48,0.426,1.013,0.533,1.439  c0.106,0.373,0.213,0.693,0.213,0.853c0.053,0.64,0.16,1.119,0.213,1.759c0,0.8-0.053,1.653-0.213,2.399  c-0.107,0.693-0.267,1.333-0.587,1.813c-0.267,0.8-0.64,1.599-1.013,2.292c-0.534,0.693-1.12,1.333-1.706,1.919  c-0.427,0.48-0.96,0.8-1.386,1.12c-0.267,0.16-0.587,0.373-0.8,0.586c-0.746,0.427-1.653,0.746-2.505,1.12  c-1.546,0.64-3.145,0.8-4.691,1.066c-0.639,0.053-1.386,0.053-2.025,0.053c-0.533,0-0.96-0.053-1.493-0.213  c0.106,0.586,0.213,1.013,0.533,1.599c0.213,0.586,0.639,1.333,1.172,2.026c0.373,0.587,0.906,1.12,1.493,1.493  c0.48,0.426,1.12,0.8,1.653,1.013c0.587,0.16,1.12,0.373,1.705,0.48c0.427,0.053,0.854,0.053,1.279,0  c0.587-0.107,1.066-0.213,1.493-0.373c0.373-0.267,0.853-0.533,1.279-0.746c0.32-0.267,0.587-0.64,0.853-0.8  c0.267-0.373,0.427-0.639,0.479-1.013c0.107-0.107,0.16-0.427,0.32-0.693c0.053-0.48,0.266-0.906,0.693-1.226  c0.16-0.16,0.479-0.373,0.639-0.48c0.427-0.32,0.853-0.373,1.493-0.373c0.266,0,0.48,0,0.799,0.053c0.32,0.053,0.694,0.32,0.96,0.48  c0.32,0.32,0.587,0.586,0.8,0.959C312.029,32.358,312.135,32.731,312.135,33.211z M294.011,23.509c0.32-0.107,0.587,0,0.853,0.107  c0.32,0.053,0.693,0.107,0.96,0.426c0.266,0,0.533,0,0.906,0c0.373-0.107,0.746-0.107,1.172-0.107  c1.066-0.213,1.92-0.426,2.986-0.906c0.639-0.16,1.172-0.533,1.759-0.853c0.373-0.373,0.639-0.746,0.96-1.066  c0.266-0.426,0.586-0.746,0.693-1.173c0.16-0.426,0.266-0.906,0.426-1.439c0-0.373,0-0.8,0-1.173c-0.106-0.32-0.16-0.48-0.266-0.853  c-0.054-0.213-0.213-0.373-0.267-0.64c-0.266-0.107-0.373-0.373-0.586-0.427c-0.213-0.106-0.427-0.32-0.587-0.426  c-0.373-0.053-0.746-0.267-1.066-0.267c-0.48-0.053-1.013-0.053-1.493,0c-0.373,0.107-0.853,0.213-1.386,0.373  c-0.427,0.267-0.8,0.586-1.226,0.746c-0.48,0.426-0.906,0.853-1.333,1.386c-0.587,0.8-1.013,1.599-1.439,2.612  C294.597,21.003,294.224,22.229,294.011,23.509z M320.502,38.915c-0.32-0.16-0.427-0.32-0.64-0.48  c-0.479-0.32-1.066-0.426-1.492-0.426c-0.48,0-0.854,0.107-1.279,0.32c-0.267,0.054-0.693,0.32-0.906,0.587  c-0.267,0.213-0.533,0.533-0.587,0.906c-0.16,0.48-0.266,0.746-0.266,1.173c0,0.267,0.106,0.533,0.106,0.8  c0.16,0.48,0.427,0.959,0.746,1.333c0.213,0.053,0.426,0.267,0.639,0.48c0.427,0.267,1.013,0.427,1.546,0.427  c0.372,0,0.693-0.107,1.066-0.267c0.426-0.16,0.746-0.373,1.066-0.64c0.213-0.32,0.479-0.587,0.533-1.013  c0.106-0.32,0.266-0.693,0.266-1.12c0-0.267-0.16-0.533-0.16-0.693C321.035,39.714,320.768,39.234,320.502,38.915z M323.113,1.919  c-0.16-0.427-0.373-0.693-0.639-1.013c-0.213-0.267-0.587-0.48-0.906-0.64c-0.427-0.16-0.8-0.267-1.173-0.267  c-0.266,0.107-0.533,0.107-0.746,0.107c-0.586,0.16-1.013,0.48-1.279,0.8c-0.213,0.213-0.373,0.373-0.533,0.586  c-0.32,0.533-0.427,1.013-0.427,1.546c-0.16,3.518-0.32,7.09-0.427,10.715c-0.106,3.518-0.32,7.09-0.373,10.555  c-0.053,2.079-0.213,3.998-0.266,5.971c0,0.48,0.054,0.853,0.266,1.226c0.213,0.32,0.373,0.746,0.587,0.906  c0.32,0.426,0.64,0.533,1.013,0.693c0.373,0.213,0.746,0.32,1.173,0.213c0.266,0,0.479,0,0.746-0.053  c0.426-0.16,0.959-0.427,1.279-0.853c0.213-0.16,0.426-0.373,0.479-0.586c0.373-0.427,0.427-0.96,0.427-1.546  c0.16-3.465,0.213-7.037,0.426-10.608c0.107-3.518,0.213-7.037,0.427-10.661c0-2.026,0.054-3.998,0.213-5.971  C323.38,2.612,323.221,2.239,323.113,1.919z"></path>
<path id="_x23_333333_00000132796075176939050620000010945056153362215298_" fill="#333333" d="M177.473,90.297  c0,3.838,0.054,10.608,0.054,14.499c0,0.8-0.373,1.493-0.853,2.079c-0.373,0.373-0.8,0.587-1.386,0.8  c-0.161,0.054-0.48,0.054-0.746,0.054c-0.427,0.106-0.8,0-1.066-0.267c-0.48-0.107-0.64-0.213-1.013-0.587  c-0.266-0.267-0.426-0.586-0.639-0.906c-0.107-0.373-0.213-0.8-0.213-1.173c0-2.239,0-4.425-0.106-6.557  c0-3.891,0-10.608-0.107-14.553c0-3.838,0-11.088-0.054-14.979c0-0.8,0.373-1.492,0.854-2.132c0.373-0.373,0.799-0.533,1.386-0.8  c0.16-0.054,0.48-0.054,0.746-0.054c0.427-0.053,0.799,0,1.172,0.32c0.373,0.053,0.693,0.16,0.906,0.533  c0.267,0.267,0.587,0.64,0.64,0.959c0.106,0.373,0.266,0.8,0.266,1.173c0,2.239,0.054,7.623,0.054,9.862  C177.366,82.461,177.473,86.352,177.473,90.297z M182.056,70.626c0,2.079,0.639,3.785,0.427,4.958  c-0.32,1.759,0.639,2.985,2.452,2.612c2.559-0.587,3.358-5.544,2.932-7.996C187.12,66.575,182.056,67.374,182.056,70.626z   M231.31,81.394c-0.213-0.959-0.48-1.813-0.853-2.719c-0.48-0.959-0.853-2.026-1.493-2.879c-0.32-0.586-0.693-1.066-1.172-1.546  c-0.267-0.373-0.533-0.639-0.853-0.906c-0.48-0.373-1.066-0.853-1.546-1.226c-0.213-0.053-0.426-0.107-0.639-0.267  c-0.267-0.16-0.693-0.267-1.173-0.426c-0.639-0.213-1.332-0.267-2.025-0.426c-0.746-0.054-1.333,0-2.079,0.213  c-0.373,0-0.853,0.107-1.279,0.267c-0.639,0.213-1.279,0.533-1.813,0.853c-0.693,0.373-1.279,0.746-1.759,1.226  c-0.426,0.267-0.853,0.587-1.013,0.906c-0.533,0.533-1.013,1.173-1.386,1.599c-0.267,0.426-0.534,0.853-0.694,1.279  c-0.053,0.107-0.053,0.107-0.053,0.107c-0.32-0.533-0.64-1.12-1.013-1.599c-0.32-0.48-0.746-1.013-1.172-1.546  c-0.373-0.48-1.013-0.959-1.493-1.279c-0.16-0.053-0.373-0.107-0.587-0.267c-0.373-0.267-0.746-0.426-1.332-0.48  c-0.427-0.16-0.853-0.213-1.333-0.213c-0.426,0-0.906,0.053-1.332,0.213c-0.64,0.054-1.279,0.32-1.813,0.693  c-0.64,0.213-1.226,0.64-1.706,1.119c-0.48,0.373-0.959,0.906-1.332,1.546c0-0.533,0-1.12,0-1.492c0-0.48-0.16-0.853-0.267-1.173  c-0.16-0.373-0.373-0.693-0.587-0.96c-0.213-0.32-0.586-0.533-0.906-0.586c-0.48-0.267-0.799-0.426-1.226-0.267  c-0.266,0-0.533,0-0.746,0.053c-0.586,0.107-1.013,0.373-1.439,0.8c-0.479,0.587-0.799,1.279-0.799,2.133  c0,3.838,0.054,7.783,0.266,11.621c0.161,3.892,0.427,7.783,0.694,11.674c0.213,2.186,0.373,4.265,0.639,6.557  c-0.054,0.373,0,0.746,0.267,1.12c0.106,0.426,0.266,0.693,0.586,1.013c0.267,0.267,0.64,0.427,0.96,0.64  c0.32,0.16,0.799,0.213,1.226,0.213c0.267-0.054,0.48-0.054,0.693-0.054c0.48-0.16,0.96-0.426,1.279-0.8  c0.533-0.586,0.96-1.386,0.96-2.132c-0.32-5.544-0.373-18.284,2.186-22.869c1.919-3.518,4.957-3.732,5.544,4.478  c0.16,1.706,0.32,3.412,0.373,5.064c0,1.386,0.053,2.718,0,3.998c-0.054,1.333-0.213,2.612-0.213,3.892  c0,0.533-0.054,1.066-0.054,1.599c0,0.426,0.054,0.853,0.267,1.279c0.16,0.267,0.266,0.64,0.639,0.906  c0.267,0.267,0.48,0.533,0.853,0.586c0.427,0.213,0.854,0.267,1.173,0.267c0.266,0,0.587-0.053,0.853-0.053  c0.587-0.213,0.96-0.427,1.279-0.8c0.213-0.267,0.427-0.427,0.533-0.64c0.266-0.48,0.32-0.96,0.32-1.546  c0.213-1.759,0.267-3.732,0.267-5.544c0.106-1.066,0.213-2.133,0.373-3.092c0.053-0.746,0.213-1.439,0.266-2.186  c0.213-1.119,0.32-2.292,0.48-3.465c0.267-1.12,0.427-2.346,0.8-3.412c0.213-0.533,0.32-1.066,0.48-1.439  c0.373-0.8,0.693-1.439,1.173-2.026c0.32-0.373,0.639-0.64,1.013-1.013c0.32-0.267,0.746-0.533,1.173-0.746  c0.266-0.107,0.639-0.16,0.906-0.16c0.266,0,0.533,0,0.746,0c0.213,0,0.373,0,0.64,0.053c0.266,0.107,0.426,0.32,0.693,0.427  c0.373,0.373,0.587,0.586,0.853,0.906c0.48,0.586,0.8,1.226,1.066,1.919c0.533,1.333,0.96,2.879,1.12,4.478  c0.267,2.452,0.267,4.905,0.054,7.356c-0.054,0.693-0.054,1.279-0.16,1.759c-0.32,2.452-1.439,6.664-1.972,9.169  c-0.107,0.267-0.107,0.746,0,1.173c0,0.32,0.053,0.8,0.266,1.119c0.213,0.373,0.48,0.587,0.853,0.853  c0.267,0.213,0.533,0.426,0.96,0.533c0.32,0,0.587,0.106,0.853,0.106c0.427,0,1.013-0.213,1.493-0.479  c0.639-0.373,1.226-1.013,1.333-1.813c0.533-2.132,1.546-6.077,1.865-8.369c0.427-2.452,0.693-4.958,0.693-7.463  c0-1.119,0-2.239-0.213-3.358C231.737,84.113,231.47,82.78,231.31,81.394z M274.269,65.988c-3.625,0.054-7.197,0.054-10.874,0.16  c-0.853,0-1.599,0-2.453,0.053c-0.959,0-1.919,0.213-2.825,0.48c-0.587,0.053-1.066,0.373-1.599,0.533  c-0.533,0.32-1.013,0.64-1.386,1.066c-0.48,0.373-0.8,0.746-1.333,1.226c-0.106,0.32-0.213,0.587-0.426,0.96  c-0.161,0.48-0.427,0.906-0.533,1.546c-0.213,0.427-0.267,0.853-0.32,1.386c-0.053,0.853-0.213,1.653-0.213,2.452  c0.16,1.706,0.213,3.465,0.266,5.224c0.054,2.239,0.267,4.531,0.373,6.77c-0.054,0.32,0,0.693,0.054,1.013  c0,1.013,0.053,2.132,0.213,3.092c0.373,3.678,0.587,7.356,0.96,10.875c0.16,0.426,0.213,0.906,0.213,1.333  c0,0.373,0.106,0.8,0.266,1.12c0.161,0.373,0.267,0.693,0.587,0.959c0.32,0.32,0.64,0.533,1.066,0.64  c0.267,0.213,0.64,0.267,1.013,0.267c0.799-0.053,1.652-0.32,2.132-0.906c0.16-0.16,0.373-0.373,0.48-0.586  c0.267-0.427,0.427-0.96,0.427-1.493c-0.427-4.051-0.906-8.156-1.173-12.207c0-0.48-0.16-0.959-0.16-1.439  c0.533-0.053,1.013-0.16,1.546-0.213c1.865-0.267,3.678-0.427,5.544-0.427c0.586,0,1.119,0,1.813,0c0.372,0,0.746-0.106,1.066-0.32  c0.426-0.053,0.693-0.267,0.906-0.586c0.372-0.213,0.533-0.587,0.693-0.853c0.16-0.48,0.266-0.746,0.266-1.226  c-0.106-0.267-0.106-0.533-0.213-0.8c-0.053-0.48-0.266-0.906-0.746-1.333c-0.107-0.106-0.373-0.267-0.533-0.426  c-0.48-0.267-1.013-0.373-1.439-0.373c-1.6,0-3.146,0-4.851,0.107c-1.493,0.054-2.932,0.267-4.371,0.587  c-0.054-1.706-0.106-3.305-0.267-4.798c-0.053-1.173-0.053-2.292-0.053-3.518c-0.107-0.64-0.107-1.439,0-2.185  c0.053-0.267,0.213-0.587,0.266-0.96c0.054-0.107,0.16-0.267,0.16-0.32c0.054-0.054,0.16-0.107,0.16-0.107  c0.213-0.16,0.267-0.267,0.32-0.32c0.32-0.054,0.746-0.107,1.119-0.267c0.64,0,1.279-0.054,1.866-0.054c1.066,0,1.919,0,2.932,0  c1.919-0.107,3.891-0.107,5.81-0.107c1.12,0,2.239-0.053,3.252-0.053c0.8,0,1.546-0.32,2.132-0.906  c0.373-0.213,0.48-0.533,0.587-0.906c0.213-0.32,0.32-0.746,0.32-1.173c-0.106-0.746-0.373-1.492-0.906-2.026  C275.816,66.362,275.069,65.988,274.269,65.988z M286.048,80.702c-0.32-0.32-0.639-0.587-1.066-0.64  c-0.32-0.107-0.64-0.267-1.12-0.267c-0.213,0-0.48,0.16-0.693,0.16c-0.533,0.107-1.013,0.373-1.386,0.746  c-0.16,0.16-0.267,0.426-0.427,0.533c-0.32,0.586-0.427,1.066-0.427,1.492c-0.16,3.092-0.266,6.29-0.266,9.276  c-0.054,3.038-0.054,3.198-0.054,6.29c0,1.759,0,3.465,0,5.171c0,0.48,0.054,0.853,0.267,1.226c0.053,0.267,0.32,0.587,0.533,0.853  c0.32,0.373,0.639,0.48,1.013,0.693c0.373,0.16,0.746,0.32,1.173,0.16c0.213,0,0.48,0,0.746-0.053c0.48-0.053,0.96-0.373,1.333-0.8  c0.213-0.107,0.267-0.32,0.427-0.587c0.32-0.426,0.426-0.906,0.426-1.492c0-3.038-0.053-6.13,0-9.222c0-3.092,0.054-3.199,0.16-6.29  c0-1.706,0.107-3.465,0.16-5.224c0-0.373-0.053-0.746-0.266-1.173C286.474,81.235,286.261,80.861,286.048,80.702z M287.433,70.306  c-0.106-0.48-0.266-1.013-0.746-1.386c-0.16-0.054-0.426-0.213-0.586-0.426c-0.427-0.213-0.96-0.427-1.546-0.427  c-0.32,0-0.746,0.054-1.066,0.32c-0.32,0.107-0.693,0.32-0.959,0.533c-0.373,0.32-0.48,0.64-0.694,1.066  c-0.106,0.32-0.213,0.693-0.213,1.119c0.106,0.267,0.106,0.427,0.16,0.746c0.053,0.48,0.32,1.066,0.746,1.386  c0.16,0.107,0.372,0.32,0.639,0.426c0.427,0.373,0.906,0.426,1.386,0.426c0.427,0,0.854-0.053,1.173-0.32  c0.373-0.054,0.746-0.32,0.959-0.533c0.373-0.267,0.533-0.64,0.587-0.96c0.32-0.426,0.373-0.8,0.32-1.173  C287.593,70.786,287.593,70.626,287.433,70.306z M312.967,80.488c-0.106-0.8-0.373-1.546-0.639-2.186  c-0.213-0.586-0.48-1.119-0.64-1.599l-1.066-1.439c-0.32-0.32-0.427-0.533-0.693-0.746c-0.48-0.373-0.906-0.746-1.493-0.959  c-0.48-0.267-1.12-0.533-1.653-0.586c-0.639-0.213-1.172-0.32-1.705-0.32c-0.693,0-1.279,0.107-1.866,0.32  c-0.32,0-0.693,0.053-0.959,0.267c-0.533,0.107-1.12,0.426-1.653,0.8c-0.479,0.16-1.066,0.64-1.493,0.906  c-0.533,0.479-1.12,1.013-1.599,1.546c-0.32,0.32-0.639,0.8-0.853,1.226c-0.213-0.906-0.32-1.706-0.533-2.665  c-0.054-0.32-0.16-0.64-0.48-0.96c-0.266-0.32-0.48-0.533-0.799-0.8c-0.373-0.213-0.693-0.32-1.12-0.32  c-0.426-0.054-0.746-0.054-1.172,0.053c-0.32,0.053-0.533,0.213-0.693,0.267c-0.533,0.267-0.854,0.746-1.12,1.12  c-0.054,0.267-0.16,0.48-0.373,0.64c-0.054,0.586-0.054,1.119,0,1.652c0.479,2.132,0.799,4.158,1.066,6.397  c0.373,2.559,0.693,5.224,0.906,7.836c0.266,2.718,0.427,5.49,0.639,8.263c0.054,1.492,0.107,3.038,0.213,4.531  c0,0.426,0.107,0.8,0.213,1.226c0.16,0.32,0.373,0.693,0.693,0.906c0.213,0.267,0.48,0.533,0.853,0.64  c0.373,0.107,0.746,0.213,1.173,0.213c0.32,0,0.587-0.107,0.746-0.107c0.586-0.107,1.013-0.373,1.439-0.746  c0.053-0.106,0.266-0.426,0.426-0.586c0.267-0.533,0.373-1.013,0.373-1.546c-0.106-3.625-0.373-7.25-0.639-10.928  c-0.533-2.932-0.16-5.438,0.746-7.889c0.586-1.386,1.386-2.666,2.292-3.838c0.426-0.693,0.959-1.119,1.546-1.599  c0.213-0.267,0.587-0.426,0.96-0.586l0.746-0.267h0.533c0.106,0.107,0.213,0.107,0.373,0.213c0.106,0,0.106,0.054,0.213,0.054  c0.161,0.053,0.213,0.267,0.267,0.32c0.267,0.267,0.373,0.587,0.587,0.853c0.32,0.8,0.479,1.813,0.586,2.612  c0.32,2.665,0,5.277-0.106,7.836c-0.266,2.932-0.639,5.704-0.799,8.689c-0.161,1.546-0.32,3.198-0.427,4.797  c0,0.48,0.054,0.853,0.16,1.226c0.267,0.267,0.373,0.64,0.693,0.906s0.479,0.48,0.96,0.587c0.32,0.213,0.639,0.267,1.066,0.267  c0.266,0,0.587-0.054,0.906-0.054c0.426-0.213,0.906-0.426,1.279-0.8c0.213-0.16,0.32-0.373,0.373-0.639  c0.373-0.427,0.426-0.853,0.426-1.493c0.373-3.412,0.693-6.983,1.013-10.448c0.106-1.652,0.32-3.358,0.426-5.117  c0.107-1.6,0.213-3.145,0.107-4.745C313.287,82.567,313.18,81.501,312.967,80.488z M341.643,97.173  c0.213,0.426,0.213,0.746-0.054,1.226c0,0.16-0.053,0.427-0.213,0.8c-0.213,0.426-0.32,0.906-0.587,1.386  c-0.213,0.267-0.373,0.533-0.479,0.8c-0.32,0.48-0.64,0.853-1.013,1.173c-0.587,0.693-1.226,1.226-1.919,1.759  c-0.427,0.267-1.013,0.533-1.546,0.8c-0.746,0.373-1.492,0.693-2.398,0.853c-0.48,0.213-1.12,0.213-1.546,0.267  c-0.372,0.054-0.746,0.054-0.905,0.054c-0.373,0-0.64,0-1.013-0.054c-0.426-0.053-1.12-0.053-1.599-0.267  c-0.96-0.16-1.705-0.479-2.559-0.853c-0.586-0.267-1.119-0.587-1.705-0.906c-0.64-0.533-1.333-1.12-1.972-1.706  c-0.64-0.587-1.173-1.333-1.759-1.972c-0.427-0.533-0.746-1.12-0.96-1.706c-0.587-0.8-0.906-1.653-1.173-2.612  c-0.213-0.693-0.32-1.493-0.586-2.186c-0.107-0.906-0.32-1.972-0.32-3.038c-0.054-1.759,0.213-3.518,0.372-5.224  c0.32-1.386,0.746-2.719,1.279-4.051c0.267-0.8,0.746-1.652,1.226-2.399c0.373-0.746,0.906-1.546,1.546-2.239  c0.426-0.48,0.853-0.959,1.386-1.386c0.693-0.639,1.333-1.119,2.079-1.546c0.533-0.267,1.013-0.373,1.439-0.693  c0.32-0.053,0.639-0.16,0.959-0.213c0.8-0.267,1.599-0.48,2.399-0.48c0.96-0.053,1.759,0,2.612,0.107  c0.48,0.107,1.12,0.213,1.706,0.533c0.746,0.213,1.439,0.586,2.079,1.119c0.427,0.267,0.906,0.533,1.333,1.013  c0.32,0.373,0.693,0.8,0.906,1.226c0.16,0.267,0.32,0.533,0.533,0.746c0.106,0.48,0.426,1.013,0.533,1.439  c0.106,0.373,0.213,0.693,0.213,0.853c0.053,0.64,0.16,1.119,0.213,1.759c0,0.8-0.053,1.653-0.213,2.399  c-0.107,0.693-0.267,1.333-0.587,1.813c-0.267,0.8-0.64,1.599-1.013,2.292c-0.533,0.693-1.12,1.333-1.706,1.919  c-0.427,0.48-0.96,0.8-1.386,1.12c-0.267,0.16-0.587,0.373-0.8,0.586c-0.746,0.427-1.653,0.746-2.505,1.12  c-1.546,0.64-3.145,0.8-4.691,1.066c-0.639,0.053-1.386,0.053-2.025,0.053c-0.533,0-0.96-0.053-1.493-0.213  c0.106,0.586,0.213,1.013,0.533,1.599c0.213,0.586,0.639,1.333,1.172,2.026c0.373,0.587,0.906,1.12,1.493,1.493  c0.479,0.426,1.12,0.8,1.653,1.013c0.587,0.16,1.12,0.373,1.705,0.48c0.427,0.053,0.854,0.053,1.279,0  c0.587-0.107,1.066-0.213,1.493-0.373c0.373-0.267,0.853-0.533,1.279-0.746c0.32-0.267,0.587-0.64,0.853-0.8  c0.267-0.373,0.427-0.639,0.48-1.013c0.107-0.107,0.16-0.427,0.32-0.693c0.053-0.479,0.266-0.906,0.693-1.226  c0.16-0.16,0.48-0.373,0.639-0.48c0.427-0.32,0.853-0.373,1.493-0.373c0.266,0,0.479,0,0.799,0.053c0.32,0.053,0.694,0.32,0.96,0.48  c0.32,0.32,0.587,0.586,0.8,0.959C341.537,96.321,341.643,96.693,341.643,97.173z M323.519,87.471c0.32-0.107,0.587,0,0.853,0.107  c0.32,0.053,0.693,0.107,0.96,0.426c0.266,0,0.533,0,0.906,0c0.373-0.107,0.746-0.107,1.172-0.107  c1.066-0.213,1.92-0.426,2.986-0.906c0.639-0.16,1.172-0.533,1.759-0.853c0.373-0.373,0.639-0.746,0.96-1.066  c0.266-0.426,0.586-0.746,0.693-1.173c0.16-0.426,0.266-0.906,0.426-1.439c0-0.373,0-0.8,0-1.173c-0.106-0.32-0.16-0.48-0.266-0.853  c-0.054-0.213-0.213-0.373-0.267-0.64c-0.266-0.107-0.373-0.373-0.586-0.427c-0.213-0.106-0.427-0.32-0.587-0.426  c-0.373-0.053-0.746-0.267-1.066-0.267c-0.479-0.053-1.013-0.053-1.493,0c-0.373,0.107-0.853,0.213-1.386,0.373  c-0.427,0.267-0.8,0.586-1.226,0.746c-0.48,0.426-0.906,0.853-1.333,1.386c-0.587,0.8-1.013,1.599-1.439,2.612  C324.105,84.966,323.732,86.192,323.519,87.471z M352.621,65.882c-0.16-0.427-0.373-0.693-0.639-1.013  c-0.213-0.267-0.587-0.48-0.906-0.64c-0.427-0.16-0.8-0.267-1.173-0.267c-0.266,0.107-0.533,0.107-0.746,0.107  c-0.586,0.16-1.013,0.48-1.279,0.8c-0.213,0.213-0.373,0.373-0.533,0.586c-0.32,0.533-0.427,1.013-0.427,1.546  c-0.16,3.518-0.32,7.09-0.427,10.715c-0.106,3.518-0.32,7.09-0.373,10.555c-0.053,2.079-0.213,3.998-0.266,5.971  c0,0.479,0.054,0.853,0.266,1.226c0.213,0.32,0.373,0.746,0.587,0.906c0.32,0.426,0.64,0.533,1.013,0.693  c0.373,0.213,0.746,0.32,1.173,0.213c0.266,0,0.479,0,0.746-0.053c0.426-0.16,0.959-0.427,1.279-0.853  c0.213-0.16,0.426-0.373,0.479-0.586c0.373-0.427,0.427-0.96,0.427-1.546c0.16-3.465,0.213-7.037,0.426-10.608  c0.107-3.518,0.213-7.037,0.427-10.661c0-2.026,0.054-3.998,0.213-5.971C352.888,66.575,352.728,66.202,352.621,65.882z   M350.01,102.877c-0.32-0.16-0.427-0.32-0.64-0.48c-0.479-0.32-1.066-0.426-1.492-0.426c-0.48,0-0.854,0.107-1.279,0.32  c-0.267,0.054-0.693,0.32-0.906,0.587c-0.267,0.213-0.533,0.533-0.587,0.906c-0.16,0.48-0.267,0.746-0.267,1.173  c0,0.267,0.107,0.533,0.107,0.8c0.16,0.479,0.427,0.959,0.746,1.333c0.213,0.053,0.426,0.267,0.639,0.48  c0.427,0.267,1.013,0.427,1.546,0.427c0.373,0,0.693-0.107,1.066-0.267c0.426-0.16,0.746-0.373,1.066-0.64  c0.213-0.32,0.479-0.587,0.533-1.013c0.106-0.32,0.266-0.693,0.266-1.12c0-0.267-0.16-0.533-0.16-0.693  C350.543,103.677,350.276,103.197,350.01,102.877z"></path>
<path id="_x23_333333" fill="#333333" d="M34.033,585.355c0.162,0.54,0.432,1.027,0.432,1.783c0,0.216-0.216,0.54-0.216,0.919  c-0.054,0.378-0.162,0.756-0.54,1.134c-0.27,0.324-0.432,0.648-0.81,0.919c-0.324,0.162-0.811,0.378-1.189,0.378  c-0.378,0.054-0.865,0.054-1.243-0.162c-0.973-0.054-1.945-0.216-2.863-0.486c-1.729-0.108-3.62-0.324-5.349-0.054  c-1.081,0.054-1.945,0.432-2.81,0.756c-0.648,0.27-1.135,0.648-1.675,1.08c-0.487,0.432-0.918,0.865-1.243,1.297  c-0.54,0.919-0.973,1.783-1.459,2.81c-0.756,2.269-1.296,4.647-1.621,7.078c0,0.108,0,0.378,0,0.486  c0.487-0.054,0.973-0.108,1.513-0.108c1.675-0.324,3.35-0.378,4.917-0.432c1.621,0,3.188,0.054,4.863,0.108  c0.594,0,1.026,0.324,1.621,0.54c0.108,0.216,0.378,0.378,0.595,0.54c0.324,0.486,0.648,0.919,0.756,1.567  c0,0.216,0.054,0.486,0.054,0.811c0,0.54-0.054,0.973-0.162,1.405c-0.162,0.432-0.432,0.865-0.648,1.135  c-0.324,0.216-0.595,0.54-1.027,0.648c-0.378,0.27-0.757,0.432-1.188,0.27c-0.811,0-1.675-0.054-2.432-0.054  c-2.701-0.108-5.511,0-8.159,0.378c-0.324,0-0.432,0.108-0.702,0.108c0,0.162,0,0.378,0,0.595c0.27,1.621,0.487,3.404,1.135,5.025  c0.162,0.54,0.378,0.973,0.648,1.404c0.324,0.432,0.595,0.703,0.81,0.919c0.487,0.378,0.919,0.702,1.405,0.865  c0.54,0.27,1.297,0.378,2.107,0.54c0.81,0.216,1.891,0.216,2.81,0c0.432-0.162,0.864-0.217,1.296-0.27  c2.107-0.432,4.053-1.351,5.998-2.162c0.54-0.27,1.08-0.27,1.675,0c0.216,0.054,0.432,0.108,0.756,0.162  c0.757,0.648,1.189,1.351,1.351,2.107c0.161,0.54,0.27,1.026,0,1.405c0,0.54-0.054,0.973-0.324,1.296  c-0.162,0.432-0.432,0.81-0.81,1.081c-0.217,0.217-0.595,0.379-0.973,0.595c-0.595,0.27-1.08,0.432-1.621,0.702  c-1.027,0.378-2.107,0.865-3.242,1.081c-1.297,0.487-2.701,0.702-4.106,0.973c-0.919,0.108-2,0.108-2.918,0  c-1.405-0.216-2.485-0.324-3.512-0.81c-1.135-0.378-2.161-0.973-3.134-1.675c-0.54-0.486-1.027-0.865-1.621-1.513  c-0.54-0.54-0.865-1.188-1.351-1.837c-0.27-0.486-0.486-0.918-0.756-1.513c-0.324-0.702-0.595-1.513-0.865-2.485  c-0.324-1.188-0.486-2.377-0.756-3.512c-0.432-2.702-0.541-5.458-0.487-8.213c0.054-1.567,0.324-3.08,0.487-4.592  c0.27-1.081,0.432-2.378,0.756-3.62c0.324-1.027,0.648-2.215,1.135-3.296c0.432-1.297,0.973-2.648,1.675-3.728  c0.756-1.189,1.513-2.378,2.539-3.026c0.865-0.918,1.945-1.783,3.08-2.161c0.648-0.486,1.297-0.811,2.053-0.973  c0.487-0.27,0.973-0.324,1.567-0.378c1.243-0.378,2.54-0.432,3.89-0.432c1.243,0,2.431,0.054,3.566,0.108  c1.513,0.324,2.918,0.54,4.376,0.864c0.541,0.108,0.919,0.378,1.351,0.919C33.709,584.869,33.762,585.031,34.033,585.355z   M64.671,591.677c-0.162-0.432-0.432-0.648-0.756-0.864c-0.271-0.054-0.595-0.108-0.757-0.27c-0.486-0.108-1.08-0.108-1.567,0  c-0.27,0.162-0.54,0.216-0.756,0.27c-0.432,0.324-0.81,0.649-1.08,1.134c-0.865,1.891-1.622,3.729-2.432,5.458  c-0.918,1.945-1.621,3.782-2.485,5.565c-0.865,1.999-1.567,3.782-2.485,5.511c-0.756,1.837-1.621,3.836-2.378,5.619  c-0.27,0.702-0.594,1.351-0.864,2c-0.217-0.432-0.379-0.919-0.541-1.513c-0.594-1.837-1.08-3.512-1.674-5.35  c-0.487-1.783-1.027-3.566-1.513-5.403c-0.487-1.891-0.919-3.674-1.351-5.512c-0.432-1.837-0.81-3.62-1.243-5.457  c0-0.27-0.054-0.54-0.054-0.756c-0.109-0.378-0.324-0.702-0.595-0.973c-0.216-0.378-0.432-0.594-0.865-0.81  c-0.378-0.216-0.702-0.324-1.188-0.324c-0.27-0.108-0.702-0.108-1.027,0c-0.27,0.108-0.54,0.27-0.81,0.324  c-0.432,0.216-0.756,0.594-1.026,1.081c-0.162,0.27-0.271,0.54-0.324,0.702c-0.217,0.595-0.217,1.135,0,1.567  c0.378,2.161,0.81,4.106,1.296,6.214c0.487,1.945,0.919,4.052,1.567,6.051c0.432,1.999,1.027,4.053,1.513,6.106  c0.649,1.999,1.351,3.944,2,5.998c0.324,0.973,0.702,1.837,1.026,2.863c0.162,0.595,0.487,1.243,0.81,1.729  c0.379,0.757,1.027,1.459,1.729,1.892h0.054c0.27,0.162,0.594,0.27,0.81,0.324c0.108,0,0.108,0.109,0.216,0.109  c0.27,0.054,0.54,0.054,0.81,0.054c0.109,0,0.162,0,0.324,0c0.324,0,0.648,0,0.973-0.162c0.27-0.054,0.595-0.161,0.865-0.27  c0.054-0.054,0.054-0.054,0.108-0.054l0.108-0.109c0.217-0.161,0.487-0.324,0.648-0.54c0.054-0.054,0.162-0.216,0.162-0.216  c0.27-0.162,0.432-0.595,0.702-0.81c0.162-0.324,0.378-0.702,0.487-1.135c0.324-0.486,0.486-0.918,0.702-1.458  c0.864-1.945,1.729-3.945,2.593-5.998c0.918-1.891,1.783-3.945,2.701-5.89c0.865-1.999,1.729-3.998,2.594-5.997  c0.81-1.999,1.729-3.89,2.647-5.889c0.162-0.486,0.432-1.027,0.541-1.459c0.324-0.324,0.378-0.756,0.378-1.135  c0.108-0.432,0.108-0.864,0-1.188C65.211,592.271,64.887,591.947,64.671,591.677z M92.877,614.64  c0.217,0.432,0.217,0.757-0.054,1.243c0,0.162-0.054,0.432-0.217,0.81c-0.216,0.432-0.324,0.919-0.594,1.405  c-0.217,0.27-0.379,0.54-0.487,0.81c-0.324,0.487-0.648,0.865-1.026,1.189c-0.595,0.702-1.243,1.243-1.945,1.783  c-0.432,0.27-1.027,0.54-1.567,0.81c-0.757,0.378-1.513,0.702-2.431,0.865c-0.487,0.216-1.135,0.216-1.567,0.27  c-0.378,0.054-0.757,0.054-0.918,0.054c-0.379,0-0.649,0-1.027-0.054c-0.432-0.054-1.135-0.054-1.621-0.27  c-0.973-0.162-1.729-0.487-2.594-0.865c-0.594-0.27-1.134-0.595-1.729-0.918c-0.648-0.54-1.351-1.135-2-1.729  c-0.648-0.595-1.188-1.351-1.783-1.999c-0.432-0.541-0.756-1.135-0.973-1.729c-0.594-0.81-0.918-1.675-1.188-2.648  c-0.217-0.702-0.324-1.513-0.595-2.215c-0.108-0.918-0.324-1.999-0.324-3.08c-0.054-1.783,0.216-3.566,0.378-5.295  c0.324-1.405,0.756-2.756,1.296-4.107c0.27-0.81,0.757-1.675,1.243-2.432c0.379-0.756,0.919-1.567,1.567-2.269  c0.432-0.486,0.865-0.973,1.405-1.405c0.702-0.648,1.351-1.134,2.107-1.567c0.54-0.27,1.026-0.378,1.458-0.702  c0.324-0.054,0.648-0.162,0.973-0.216c0.81-0.27,1.621-0.486,2.432-0.486c0.973-0.054,1.783,0,2.647,0.108  c0.487,0.108,1.135,0.216,1.729,0.54c0.756,0.216,1.458,0.594,2.107,1.134c0.432,0.27,0.918,0.541,1.351,1.027  c0.324,0.378,0.702,0.81,0.918,1.243c0.162,0.27,0.324,0.54,0.54,0.756c0.109,0.486,0.432,1.027,0.54,1.459  c0.109,0.378,0.217,0.702,0.217,0.864c0.054,0.648,0.162,1.135,0.216,1.783c0,0.811-0.054,1.675-0.216,2.431  c-0.108,0.703-0.27,1.351-0.595,1.837c-0.27,0.81-0.648,1.621-1.026,2.323c-0.54,0.703-1.135,1.351-1.729,1.945  c-0.432,0.486-0.973,0.81-1.405,1.134c-0.27,0.162-0.594,0.378-0.81,0.595c-0.756,0.432-1.675,0.756-2.54,1.134  c-1.566,0.649-3.187,0.81-4.754,1.081c-0.648,0.054-1.405,0.054-2.053,0.054c-0.54,0-0.973-0.054-1.513-0.216  c0.108,0.594,0.216,1.026,0.54,1.621c0.216,0.595,0.648,1.351,1.188,2.053c0.378,0.595,0.918,1.135,1.513,1.513  c0.487,0.432,1.135,0.81,1.675,1.027c0.595,0.161,1.135,0.378,1.729,0.486c0.432,0.054,0.864,0.054,1.296,0  c0.595-0.108,1.08-0.216,1.513-0.378c0.379-0.27,0.865-0.54,1.297-0.757c0.324-0.27,0.595-0.648,0.865-0.81  c0.27-0.378,0.432-0.648,0.486-1.026c0.108-0.109,0.162-0.432,0.324-0.703c0.054-0.487,0.27-0.919,0.702-1.243  c0.162-0.162,0.486-0.379,0.648-0.487c0.432-0.324,0.865-0.378,1.513-0.378c0.27,0,0.487,0,0.81,0.054  c0.324,0.054,0.702,0.324,0.973,0.486c0.324,0.324,0.595,0.595,0.81,0.973C92.769,613.775,92.877,614.154,92.877,614.64z   M74.506,604.807c0.324-0.108,0.595,0,0.865,0.108c0.324,0.054,0.702,0.108,0.973,0.432c0.27,0,0.54,0,0.918,0  c0.379-0.108,0.757-0.108,1.189-0.108c1.08-0.216,1.945-0.432,3.026-0.918c0.648-0.162,1.188-0.541,1.783-0.865  c0.378-0.378,0.648-0.756,0.973-1.081c0.27-0.432,0.595-0.756,0.702-1.189c0.162-0.432,0.27-0.919,0.432-1.459  c0-0.378,0-0.81,0-1.189c-0.109-0.324-0.162-0.486-0.27-0.864c-0.054-0.216-0.217-0.378-0.27-0.648  c-0.27-0.108-0.379-0.378-0.595-0.432c-0.217-0.108-0.432-0.324-0.595-0.432c-0.378-0.054-0.756-0.271-1.08-0.271  c-0.486-0.054-1.027-0.054-1.513,0c-0.378,0.108-0.865,0.216-1.405,0.378c-0.432,0.27-0.81,0.594-1.243,0.756  c-0.486,0.432-0.918,0.865-1.351,1.405c-0.595,0.81-1.027,1.621-1.459,2.647C75.101,602.267,74.723,603.51,74.506,604.807z   M117.679,603.726c0.486-0.324,0.918-0.703,1.134-1.189c0.109-0.216,0.217-0.378,0.27-0.648c0.162-0.486,0.162-1.135,0-1.621  c-0.054-0.378-0.161-0.864-0.27-1.134c-0.216-0.649-0.378-1.189-0.702-1.783c-0.432-0.486-0.702-0.973-1.135-1.459  c-0.217-0.324-0.595-0.54-0.865-0.81c-0.27-0.27-0.648-0.54-0.918-0.81c-0.217-0.054-0.379-0.27-0.54-0.324  c-0.217-0.108-0.324-0.216-0.541-0.27c-0.432-0.108-0.81-0.324-1.296-0.541c-0.378-0.162-0.865-0.216-1.135-0.216  c-0.702-0.216-1.351-0.27-2.053-0.216c-0.432,0-0.865,0.054-1.351,0.054c-0.27,0.162-0.432,0.162-0.595,0.216  c-0.702,0.108-1.297,0.432-1.837,0.703c-0.432,0.054-0.756,0.324-1.026,0.54c-0.217,0.054-0.324,0.108-0.54,0.324  c-0.379,0.27-0.595,0.54-0.973,0.81c-0.217,0.162-0.487,0.325-0.649,0.54c-0.108-0.81-0.108-1.675-0.162-2.539  c0-0.432-0.108-0.864-0.27-1.134c-0.108-0.432-0.324-0.702-0.702-1.081c-0.27-0.216-0.54-0.432-0.918-0.594  c-0.378-0.162-0.81-0.27-1.135-0.27c-0.27,0.108-0.648,0.108-0.918,0.108c-0.432,0.162-0.918,0.432-1.297,0.756  c-0.216,0.27-0.324,0.432-0.486,0.648c-0.27,0.54-0.378,0.973-0.378,1.567c0.27,3.566,0.594,7.24,0.81,10.914  c0.216,3.62,0.432,7.294,0.486,10.861c0.162,2.053,0.217,4.052,0.217,6.051c0,0.432,0.054,0.865,0.27,1.188  c0.108,0.379,0.324,0.649,0.648,1.027c0.27,0.27,0.648,0.486,0.973,0.595c0.324,0.216,0.81,0.27,1.188,0.27  c0.27-0.054,0.54-0.054,0.81-0.054c0.541-0.216,0.973-0.432,1.297-0.81c0.217-0.27,0.378-0.432,0.595-0.702  c0.162-0.432,0.216-0.918,0.216-1.513c0-3.566-0.162-7.186-0.216-10.914c-0.162-0.919-0.162-1.783-0.217-2.81  c0.27-1.134,0.432-2.269,0.865-3.404c0.487-1.027,1.08-2.053,1.783-2.918c0.378-0.54,0.919-1.081,1.513-1.513  c0.27-0.271,0.649-0.432,0.973-0.648c0.27-0.108,0.595-0.216,0.865-0.216c0.27,0,0.648,0,0.918,0c0.324,0,0.595,0.108,0.865,0.324  c0.27,0.054,0.54,0.216,0.702,0.27c0.216,0.216,0.432,0.432,0.595,0.649c0.216,0.27,0.324,0.54,0.486,0.756  c0.162,0.378,0.27,0.702,0.324,1.135c0.054,0.324,0.27,0.648,0.54,1.081c0.108,0.27,0.486,0.432,0.865,0.756  c0.27,0.162,0.702,0.324,1.08,0.324c0.27,0.162,0.756,0.162,1.188-0.054C117.247,603.888,117.462,603.834,117.679,603.726z   M147.127,596.216c0.054-0.649,0-1.189,0.054-1.783c-0.108-0.486-0.216-0.756-0.378-1.081c-0.217-0.378-0.432-0.703-0.81-0.864  c-0.217-0.378-0.649-0.486-0.973-0.541c-0.432-0.162-0.865-0.216-1.243-0.216c-0.811,0.162-1.567,0.54-1.945,1.134  c-0.162,0.162-0.27,0.486-0.432,0.702c-0.27,0.486-0.378,0.973-0.217,1.513c0,5.457,0.217,10.86,0.217,16.209  c-0.054,0.487-0.054,1.135,0,1.729c-0.27,0.216-0.595,0.378-0.649,0.54c-0.161,0.324-0.486,0.54-0.594,0.757  c-0.649,0.54-1.243,0.918-1.892,1.458c-0.324,0.108-0.81,0.324-1.188,0.378c-0.324,0.162-0.648,0.162-0.973,0.162  c-0.378-0.054-0.54-0.108-0.865-0.216c-0.378-0.054-0.81-0.324-1.243-0.54c-0.378-0.324-0.918-0.595-1.243-0.973  c-0.432-0.541-0.81-1.189-1.243-1.675c-0.486-1.189-0.918-2.215-1.296-3.458c0-0.27-0.109-0.54-0.162-0.756  c-0.378-1.729-0.702-3.35-0.919-5.025c-0.324-1.891-0.486-3.782-0.594-5.727c0-0.865,0-1.729,0.054-2.648  c0.054-0.432,0.054-0.756-0.161-1.189c0-0.378-0.217-0.703-0.379-1.027c-0.216-0.324-0.594-0.594-0.864-0.756  c-0.379-0.27-0.757-0.432-1.135-0.486c-0.324,0.054-0.487,0-0.81-0.054c-0.487,0.162-0.919,0.324-1.459,0.594  c-0.162,0.216-0.27,0.378-0.54,0.595c-0.27,0.378-0.595,0.81-0.648,1.351c0,1.729-0.054,3.296,0,4.863  c0.054,1.297,0.216,2.756,0.432,3.998c0.108,1.351,0.324,2.702,0.594,3.998c0.217,1.567,0.595,2.972,1.135,4.485  c0.27,1.188,0.595,2.269,1.189,3.404c0.486,0.81,0.81,1.513,1.351,2.215c0.432,0.648,1.026,1.297,1.675,1.837  c0.324,0.378,0.756,0.81,1.296,1.135c0.54,0.486,1.243,0.973,2.053,1.188c0.27,0.162,0.541,0.216,0.811,0.27  c0.486,0.216,1.08,0.378,1.566,0.432c0.27,0.054,0.487,0.054,0.81,0.054c0.595,0,1.081,0.054,1.622,0c0.27,0,0.594,0,0.756-0.162  c0.648-0.054,1.135-0.162,1.621-0.379c0.541-0.108,1.081-0.378,1.567-0.648c-0.162,1.135-0.324,2.27-0.54,3.404  c-0.108,0.757-0.27,1.405-0.486,2.107c-0.379,1.405-0.973,2.594-1.622,3.837c-0.54,0.864-1.243,1.566-1.891,2.323  c-0.54,0.54-1.243,0.973-1.891,1.405c-0.649,0.27-1.135,0.486-1.837,0.702c-0.595,0.162-1.297,0.271-2,0.217  c-0.81-0.054-1.621-0.162-2.377-0.378c-1.027-0.379-2-0.757-2.864-1.297c-0.918-0.648-1.837-1.243-2.593-2.161  c-0.324-0.379-0.702-0.81-0.973-1.243c-0.54-0.54-1.297-1.027-2.053-1.189c-0.757-0.108-1.675,0.162-2.162,0.54  c-0.648,0.595-1.188,1.243-1.243,2c-0.108,0.81,0.054,1.621,0.595,2.269c0.648,0.919,1.351,1.784,2.27,2.486  c0.702,0.648,1.405,1.296,2.107,1.783c0.972,0.648,1.944,1.296,2.917,1.729c1.027,0.432,2.107,0.865,3.242,1.081  c0.973,0.217,1.729,0.324,2.54,0.379c1.188-0.054,2.323,0,3.458-0.217c1.188-0.27,2.215-0.702,3.296-1.188  c1.026-0.487,1.999-1.081,2.863-1.783c0.865-0.757,1.675-1.622,2.378-2.54c0.81-0.973,1.405-1.837,1.945-2.863  c0.54-1.027,0.918-2,1.243-2.864c0.54-1.404,0.756-2.701,1.026-3.998c0.487-2.269,0.702-4.646,0.757-6.862  c0.162-2.648,0.162-5.349,0.108-8.051C147.289,605.833,147.181,601.078,147.127,596.216z M176.522,618.638  c-0.432-0.54-1.08-1.188-1.837-1.296c-0.216,0-0.486,0-0.81-0.217c-0.54,0-1.027,0.27-1.513,0.487  c-0.378,0.27-0.702,0.486-1.08,0.594c-0.324,0.162-0.595,0.324-1.08,0.379c-0.487,0-0.865,0-1.351,0  c-0.432-0.054-0.918-0.324-1.188-0.379c-0.378-0.108-0.702-0.324-0.973-0.594c-0.27-0.162-0.54-0.487-0.757-0.649  c-0.324-0.432-0.54-0.756-0.702-1.188c-0.378-1.027-0.486-1.837-0.702-2.863c-0.162-1.189-0.162-2.432-0.162-3.62  c-0.109-1.675-0.109-3.404-0.109-5.025c0-0.324,0-0.81,0-1.188c0.379,0,0.757,0,1.135-0.108c1.027-0.054,2.107-0.108,3.08-0.108  c0.432,0,0.865-0.162,1.188-0.27c0.379-0.271,0.702-0.378,1.027-0.702c0.162-0.324,0.486-0.702,0.54-0.919  c0.27-0.378,0.324-0.756,0.27-1.135c0-0.324,0-0.648-0.054-0.918c-0.217-0.486-0.487-0.919-0.757-1.297  c-0.216-0.162-0.486-0.324-0.648-0.432c-0.432-0.324-0.973-0.378-1.567-0.378c-1.351,0.054-2.701,0.108-4.106,0.216  c0.054-0.864,0.054-1.783,0.162-2.702c0.108-1.837,0.216-3.728,0.324-5.673c0-0.324-0.054-0.756-0.216-1.134  c-0.217-0.324-0.379-0.595-0.595-0.865c-0.378-0.378-0.648-0.486-1.08-0.649c-0.378-0.216-0.648-0.378-1.135-0.378  c-0.162,0.162-0.486,0.162-0.756,0.27c-0.487,0.054-0.973,0.324-1.297,0.756c-0.27,0.108-0.378,0.324-0.432,0.54  c-0.378,0.54-0.54,1.027-0.54,1.459c-0.162,2.972-0.432,5.889-0.487,8.807c-0.27,0.108-0.486,0.108-0.756,0.108  c-1.027,0.054-2.053,0.162-3.026,0.27c-0.432,0-0.865,0.108-1.189,0.216c-0.324,0.054-0.648,0.378-0.973,0.648  c-0.27,0.216-0.486,0.54-0.594,0.919c-0.217,0.378-0.27,0.756-0.217,1.188c0,0.27,0,0.595,0.054,0.756  c0.108,0.595,0.324,1.027,0.756,1.405c0.162,0.108,0.487,0.324,0.649,0.432c0.432,0.324,0.973,0.432,1.513,0.432  c1.243-0.054,2.431-0.108,3.728-0.27c0,1.567,0,3.134,0,4.755c0.054,1.405,0.054,2.863,0.324,4.161  c0.054,1.566,0.216,3.134,0.81,4.646c0.161,0.81,0.54,1.675,1.134,2.378c0.162,0.54,0.541,0.973,0.865,1.405  c0.27,0.216,0.378,0.378,0.648,0.648c1.135,1.135,2.486,1.892,4.053,2.432c0.487,0.216,1.027,0.324,1.621,0.486  c0.757,0.054,1.567,0.108,2.378,0.108c0.757-0.054,1.675-0.108,2.485-0.432c0.162-0.054,0.487-0.161,0.757-0.27  c0.432-0.161,0.918-0.432,1.405-0.648c0.216-0.162,0.54-0.27,0.648-0.432c0.378-0.162,0.702-0.486,0.81-0.756  c0.324-0.324,0.432-0.595,0.54-1.081c0.217-0.324,0.217-0.81,0.108-1.188C176.846,619.395,176.738,618.963,176.522,618.638z   M204.188,608.049c-0.054-0.756-0.324-1.567-0.648-2.27c-0.271-0.864-0.595-1.729-1.297-2.485c-0.324-0.432-0.702-0.973-1.08-1.351  c-0.379-0.432-0.865-0.81-1.297-1.135c-0.324-0.108-0.595-0.378-0.865-0.486c-0.594-0.324-1.08-0.486-1.729-0.648  c-0.595-0.108-1.189-0.162-1.783-0.162c-0.595,0-1.189,0.054-1.837,0.108c-0.378,0.054-0.757,0.216-1.135,0.27  c-0.486,0.324-1.135,0.432-1.621,0.81c-0.324,0.054-0.702,0.324-0.865,0.432c-0.595,0.378-1.08,0.81-1.513,1.188  c-0.702,0.649-1.188,1.459-1.837,2.161c0-3.296,0-6.484,0.217-9.672c0.162-2.431,0.324-5.025,0.595-7.456  c0-0.378-0.109-0.756-0.271-1.135c-0.108-0.324-0.324-0.702-0.594-1.027c-0.27-0.27-0.595-0.432-0.919-0.648  c-0.378-0.162-0.81-0.216-1.188-0.216c-0.81,0.054-1.567,0.378-2.107,0.864c-0.162,0.27-0.27,0.378-0.54,0.702  c-0.216,0.378-0.432,0.865-0.432,1.459c-0.378,4.485-0.702,8.915-0.756,13.4c0,4.485,0.162,8.97,0.486,13.454  c0.217,2.378,0.595,4.863,0.81,7.295c0.162,0.216,0.162,0.54,0.217,0.81c0.054,0.378,0.216,0.702,0.432,1.026  c0.216,0.27,0.54,0.54,0.918,0.81c0.162,0.054,0.432,0.162,0.648,0.324c0.487,0.054,0.757,0.108,1.243,0.054  c0.27,0,0.487-0.054,0.757-0.325c0.378-0.054,0.702-0.324,0.918-0.595c0.595-0.594,0.865-1.296,0.865-2.107  c0-1.189,0.162-2.54,0.27-3.783c0.324-2.323,1.027-4.646,1.891-6.862c0.487-1.243,1.081-2.324,1.837-3.404  c0.378-0.378,0.702-0.756,1.135-1.081c0.378-0.27,0.702-0.486,1.026-0.648c0.217-0.054,0.595-0.108,0.865-0.216h0.649  c0.216,0.108,0.378,0.108,0.54,0.162c0.108,0.054,0.378,0.108,0.432,0.216c0.216,0.216,0.432,0.486,0.594,0.594  c0.217,0.378,0.432,0.756,0.595,1.135c0.216,0.594,0.432,1.189,0.54,1.891c0.216,1.891,0.054,3.782,0.054,5.673  c0,2.162-0.054,0.81-0.054,2.918c-0.108,1.189-0.108,2.378-0.108,3.566c0,0.432,0.108,0.757,0.27,1.297  c0.054,0.216,0.324,0.595,0.595,0.865c0.27,0.324,0.594,0.486,0.973,0.648c0.378,0.162,0.702,0.217,1.188,0.217  c0.756,0,1.513-0.217,2.107-0.865c0.486-0.649,0.864-1.243,0.864-2.162c0.162-3.62,0.162-3.944,0.217-7.619  c0-0.864,0.054-1.729,0-2.647C204.458,610.317,204.404,609.183,204.188,608.049z M215.86,587.408  c-0.108-0.486-0.27-1.027-0.756-1.405c-0.162-0.054-0.432-0.216-0.595-0.432c-0.432-0.216-0.973-0.432-1.567-0.432  c-0.324,0-0.756,0.054-1.08,0.324c-0.324,0.108-0.702,0.324-0.973,0.54c-0.378,0.324-0.486,0.649-0.702,1.081  c-0.108,0.324-0.216,0.703-0.216,1.134c0.108,0.27,0.108,0.432,0.162,0.756c0.054,0.486,0.324,1.081,0.756,1.405  c0.162,0.108,0.378,0.324,0.648,0.432c0.432,0.378,0.919,0.432,1.405,0.432c0.432,0,0.865-0.054,1.189-0.324  c0.378-0.054,0.756-0.324,0.973-0.54c0.378-0.27,0.54-0.648,0.594-0.973c0.324-0.432,0.379-0.81,0.324-1.189  C216.022,587.895,216.022,587.732,215.86,587.408z M214.455,597.945c-0.324-0.324-0.648-0.595-1.08-0.648  c-0.324-0.108-0.648-0.27-1.135-0.27c-0.216,0-0.486,0.162-0.702,0.162c-0.54,0.108-1.026,0.378-1.404,0.756  c-0.162,0.162-0.27,0.432-0.432,0.54c-0.324,0.594-0.432,1.081-0.432,1.513c-0.162,3.134-0.27,6.376-0.27,9.401  c-0.054,3.08-0.054,3.242-0.054,6.376c0,1.783,0,3.512,0,5.241c0,0.487,0.054,0.865,0.27,1.243c0.054,0.27,0.324,0.595,0.54,0.865  c0.324,0.378,0.649,0.486,1.027,0.702c0.378,0.162,0.756,0.324,1.188,0.162c0.217,0,0.487,0,0.757-0.054  c0.486-0.054,0.973-0.378,1.351-0.81c0.217-0.108,0.27-0.324,0.432-0.595c0.324-0.432,0.432-0.918,0.432-1.513  c0-3.08-0.054-6.214,0-9.347c0-3.134,0.054-3.242,0.162-6.376c0-1.729,0.108-3.512,0.162-5.295c0-0.378-0.054-0.756-0.271-1.189  C214.888,598.485,214.672,598.106,214.455,597.945z M241.742,597.728c-0.108-0.81-0.378-1.567-0.648-2.215  c-0.217-0.594-0.487-1.135-0.649-1.621l-1.08-1.459c-0.324-0.324-0.432-0.54-0.702-0.756c-0.486-0.378-0.918-0.756-1.513-0.973  c-0.486-0.27-1.135-0.54-1.675-0.594c-0.648-0.216-1.188-0.324-1.729-0.324c-0.702,0-1.297,0.108-1.892,0.324  c-0.324,0-0.702,0.054-0.972,0.27c-0.541,0.108-1.135,0.432-1.675,0.81c-0.487,0.162-1.081,0.648-1.513,0.919  c-0.541,0.486-1.135,1.027-1.622,1.567c-0.324,0.324-0.648,0.81-0.864,1.243c-0.217-0.919-0.324-1.729-0.541-2.702  c-0.054-0.324-0.161-0.648-0.486-0.973c-0.27-0.324-0.487-0.541-0.81-0.811c-0.378-0.216-0.702-0.324-1.135-0.324  c-0.432-0.054-0.757-0.054-1.188,0.054c-0.324,0.054-0.54,0.216-0.702,0.27c-0.54,0.27-0.865,0.756-1.135,1.135  c-0.054,0.27-0.162,0.486-0.378,0.648c-0.054,0.594-0.054,1.134,0,1.675c0.486,2.161,0.81,4.214,1.08,6.484  c0.378,2.593,0.702,5.295,0.918,7.943c0.27,2.756,0.432,5.565,0.648,8.375c0.054,1.513,0.109,3.08,0.217,4.593  c0,0.432,0.108,0.81,0.216,1.243c0.162,0.324,0.379,0.702,0.702,0.919c0.217,0.27,0.487,0.54,0.865,0.648  c0.378,0.108,0.757,0.216,1.188,0.216c0.324,0,0.595-0.108,0.757-0.108c0.595-0.108,1.027-0.378,1.458-0.756  c0.054-0.109,0.27-0.432,0.432-0.595c0.27-0.54,0.379-1.027,0.379-1.567c-0.109-3.674-0.379-7.348-0.649-11.077  c-0.54-2.972-0.162-5.511,0.757-7.997c0.594-1.405,1.405-2.702,2.323-3.89c0.432-0.702,0.973-1.134,1.567-1.621  c0.216-0.27,0.594-0.432,0.973-0.595l0.756-0.27h0.54c0.108,0.108,0.217,0.108,0.379,0.216c0.108,0,0.108,0.054,0.216,0.054  c0.162,0.054,0.216,0.27,0.27,0.324c0.27,0.27,0.378,0.594,0.595,0.864c0.324,0.81,0.486,1.837,0.594,2.648  c0.324,2.702,0,5.349-0.108,7.943c-0.27,2.972-0.648,5.781-0.81,8.807c-0.162,1.567-0.324,3.242-0.432,4.863  c0,0.487,0.054,0.865,0.162,1.243c0.27,0.27,0.378,0.649,0.702,0.919c0.324,0.27,0.486,0.486,0.973,0.594  c0.324,0.217,0.648,0.27,1.08,0.27c0.27,0,0.595-0.054,0.918-0.054c0.432-0.217,0.919-0.432,1.297-0.81  c0.217-0.162,0.324-0.379,0.378-0.649c0.379-0.432,0.432-0.864,0.432-1.513c0.378-3.458,0.702-7.078,1.027-10.59  c0.108-1.675,0.324-3.404,0.432-5.188c0.108-1.621,0.216-3.188,0.108-4.809C242.067,599.835,241.958,598.755,241.742,597.728z   M269.191,610.48c0.162,0.379,0.162,0.757-0.108,1.135c-0.054,0.432-0.108,0.757-0.324,1.135c0,0.054-0.054,0.108-0.054,0.324  c0.108,2.485,0.108,5.079-0.054,7.564c-0.324,1.783-0.595,3.674-1.188,5.403c-0.379,1.081-0.811,1.999-1.405,2.971  c-0.432,0.865-1.135,1.622-1.622,2.432c-1.08,1.351-2.323,2.378-3.836,3.296c-0.594,0.432-1.243,0.756-1.891,1.135  c-0.918,0.324-1.729,0.756-2.593,1.026c-0.757,0.162-1.459,0.324-2.215,0.432c-1.027,0.162-1.892,0.217-2.864,0.217  c-1.026,0-1.945-0.054-2.918-0.217c-0.702-0.108-1.351-0.27-2.161-0.595c-0.378-0.054-0.918-0.27-1.297-0.702  c-0.161-0.162-0.27-0.324-0.378-0.595c-0.54-0.702-0.54-1.621-0.378-2.378c0.108-0.27,0.216-0.648,0.54-1.027  c0.216-0.216,0.486-0.486,0.81-0.756c0.378-0.162,0.702-0.27,1.135-0.27c0.432-0.162,0.756-0.162,1.188,0.054  c0.702,0.109,1.351,0.324,2.053,0.487c0.973,0.108,1.945,0.108,2.81,0c1.135-0.162,2.162-0.487,3.134-0.865  c0.918-0.432,1.783-0.865,2.539-1.458c0.702-0.54,1.243-1.189,1.892-1.945c0.594-0.757,1.026-1.567,1.458-2.54  c0.486-1.351,0.865-2.701,1.081-4.214c0-0.379,0.108-0.703,0.108-1.027c-0.108,0.054-0.27,0.054-0.324,0.216  c-0.379,0.054-0.702,0.109-1.08,0.217c-0.757,0.108-1.351,0.162-2,0.108c-0.757-0.108-1.513-0.216-2.215-0.324  c-0.108-0.161-0.432-0.216-0.54-0.324c-0.378-0.108-0.918-0.324-1.351-0.595c-0.432-0.162-0.865-0.432-1.189-0.648  c-0.486-0.378-1.135-0.757-1.621-1.189c-0.648-0.594-1.188-1.134-1.729-1.837c-0.648-0.757-1.351-1.783-1.891-2.648  c-0.162-0.378-0.378-0.757-0.54-1.189c-0.216-0.594-0.486-1.188-0.756-1.783c-0.324-0.973-0.487-2.053-0.595-3.134  c-0.054-0.756-0.054-1.675,0-2.431c0.108-1.027,0.27-2.053,0.595-3.134c0.27-0.54,0.54-1.188,0.756-1.729  c0.162-0.378,0.378-0.702,0.54-1.081c0.378-0.649,0.757-1.135,1.135-1.567c0.216-0.324,0.54-0.703,0.865-0.919  c0.432-0.432,0.918-0.919,1.405-1.189c0.324-0.324,0.648-0.54,0.973-0.703c0.702-0.378,1.188-0.594,1.891-0.81  c0.324-0.162,0.756-0.324,1.135-0.378c0.594-0.216,1.243-0.324,1.945-0.378c0.27,0,0.756-0.054,1.188-0.054  c0.324,0,0.757,0.054,1.188,0.054c0.595,0.054,1.297,0.162,1.892,0.378c0.648,0.162,1.188,0.378,1.783,0.703  c0.432,0.108,0.756,0.27,1.081,0.486c0.108,0.162,0.324,0.27,0.486,0.324c0.702,0.54,0.702,0.54,1.189,1.188  c0.054,0.108,0.054,0.216,0.216,0.27c0.054,0.271,0.162,0.649,0.379,0.865c0.054,0.378,0.054,0.594,0.054,0.919  c0,0.054,0,0.054,0,0.054c0,0.054-0.054,0.702-0.054,0.756s0,0.054,0,0.054c0,0.27,0,0.324,0,0.432  c0.216,3.458,0.54,6.808,0.864,10.158c0.27,0.162,0.379,0.486,0.487,0.648C269.028,609.724,269.191,610.047,269.191,610.48z   M262.545,611.992c-0.054-1.566-0.216-3.188-0.378-4.7c-0.324-2.918-0.54-5.836-0.81-8.861c-0.379-0.108-0.865-0.324-1.351-0.378  c-0.541-0.054-1.081-0.054-1.675,0c-0.54,0.054-0.973,0.324-1.459,0.432c-0.486,0.216-0.973,0.432-1.351,0.703  c-0.432,0.432-0.81,0.756-1.243,1.189c-0.324,0.594-0.702,1.134-0.865,1.729c-0.324,0.594-0.54,1.297-0.595,1.999  c-0.054,0.756-0.054,1.513,0,2.161c0.054,0.757,0.379,1.567,0.649,2.27c0.378,0.756,0.81,1.512,1.296,2.324  c0.595,0.648,1.351,1.296,1.945,1.944c0.649,0.379,1.081,0.702,1.783,0.865c0.217,0.27,0.595,0.324,0.865,0.324  c0.324,0.054,0.487,0.054,0.702,0.054c0.217-0.054,0.378-0.108,0.54-0.108c0.27-0.27,0.487-0.324,0.649-0.432  c0.324-0.27,0.594-0.594,0.918-0.918C262.329,612.425,262.383,612.155,262.545,611.992z M296.264,587.408  c-0.108-0.486-0.27-1.027-0.756-1.405c-0.162-0.054-0.432-0.216-0.595-0.432c-0.432-0.216-0.973-0.432-1.567-0.432  c-0.324,0-0.756,0.054-1.08,0.324c-0.324,0.108-0.702,0.324-0.973,0.54c-0.378,0.324-0.486,0.649-0.702,1.081  c-0.108,0.324-0.216,0.703-0.216,1.134c0.108,0.27,0.108,0.432,0.162,0.756c0.054,0.486,0.324,1.081,0.756,1.405  c0.162,0.108,0.378,0.324,0.648,0.432c0.432,0.378,0.919,0.432,1.405,0.432c0.432,0,0.865-0.054,1.189-0.324  c0.378-0.054,0.756-0.324,0.973-0.54c0.378-0.27,0.54-0.648,0.594-0.973c0.324-0.432,0.379-0.81,0.324-1.189  C296.426,587.895,296.426,587.732,296.264,587.408z M294.859,597.945c-0.324-0.324-0.648-0.595-1.08-0.648  c-0.324-0.108-0.648-0.27-1.135-0.27c-0.216,0-0.486,0.162-0.702,0.162c-0.54,0.108-1.026,0.378-1.404,0.756  c-0.162,0.162-0.27,0.432-0.432,0.54c-0.324,0.594-0.432,1.081-0.432,1.513c-0.162,3.134-0.27,6.376-0.27,9.401  c-0.054,3.08-0.054,3.242-0.054,6.376c0,1.783,0,3.512,0,5.241c0,0.487,0.054,0.865,0.27,1.243c0.054,0.27,0.324,0.595,0.54,0.865  c0.324,0.378,0.649,0.486,1.027,0.702c0.378,0.162,0.756,0.324,1.188,0.162c0.217,0,0.487,0,0.757-0.054  c0.486-0.054,0.973-0.378,1.351-0.81c0.217-0.108,0.27-0.324,0.432-0.595c0.324-0.432,0.432-0.918,0.432-1.513  c0-3.08-0.054-6.214,0-9.347c0-3.134,0.054-3.242,0.162-6.376c0-1.729,0.108-3.512,0.162-5.295c0-0.378-0.054-0.756-0.271-1.189  C295.291,598.485,295.075,598.106,294.859,597.945z M321.712,593.46c-0.432-0.486-0.865-0.811-1.351-1.189  c-0.702-0.595-1.297-1.027-2.107-1.513c-0.486-0.27-1.026-0.649-1.621-0.756c-0.757-0.378-1.567-0.702-2.323-0.865  c-0.811-0.27-1.675-0.432-2.594-0.432c-0.864-0.054-1.621,0.162-2.431,0.216c-0.54,0.054-1.135,0.27-1.621,0.486  c-0.81,0.324-1.622,0.648-2.324,1.081c-0.594,0.54-1.188,0.918-1.621,1.567c-0.54,0.594-1.081,1.189-1.351,1.945  c-0.324,0.756-0.702,1.459-0.702,2.215c-0.162,0.486-0.216,0.973-0.216,1.459c0,0.594,0.054,1.027,0.216,1.567  c0,0.81,0.27,1.513,0.648,2.161c0.324,0.756,0.702,1.243,1.189,1.837c0.27,0.378,0.648,0.649,1.026,1.027  c0.54,0.432,1.189,0.919,1.783,1.243c1.729,1.081,3.567,1.891,5.35,3.026c0.054,0.054,0.216,0.162,0.324,0.27  c0.649,0.378,1.135,1.027,1.675,1.675c0.379,0.487,0.702,0.973,0.973,1.513c0.162,0.54,0.379,1.081,0.432,1.459  c0,0.594,0,1.026,0,1.513c-0.054,0.432-0.216,0.756-0.324,1.188c-0.217,0.324-0.324,0.595-0.595,0.919  c-0.108,0.161-0.27,0.324-0.595,0.594c-0.27,0.162-0.54,0.379-0.865,0.487c-0.324,0.162-0.756,0.216-1.243,0.324  c-0.378,0.109-0.864,0.109-1.296,0c-0.379-0.108-0.865-0.161-1.243-0.378c-0.432-0.162-0.865-0.432-1.189-0.703  c-0.54-0.432-0.864-0.81-1.351-1.296c-0.324-0.487-0.648-1.081-0.918-1.622c0-0.108-0.109-0.161-0.109-0.324  c-0.054-0.324-0.27-0.702-0.54-0.919c-0.27-0.324-0.432-0.648-0.864-0.756c-0.324-0.324-0.702-0.432-1.081-0.487  c-0.486-0.108-0.81,0-1.188,0.054c-0.324,0.108-0.486,0.216-0.702,0.432c-0.595,0.27-0.865,0.595-1.188,0.973  c-0.109,0.27-0.162,0.594-0.27,0.702c-0.162,0.594-0.162,1.135,0,1.729c0.27,0.865,0.648,1.729,1.08,2.485  c0.486,0.757,1.08,1.513,1.621,2.162c0.648,0.756,1.297,1.296,2.162,1.836c0.432,0.432,0.972,0.757,1.566,1.027  c0.919,0.432,1.729,0.756,2.648,0.918c0.81,0.162,1.675,0.27,2.648,0.27c0.648-0.108,1.135-0.216,1.729-0.27  c0.27,0,0.595-0.054,0.973-0.162c0.487-0.161,1.081-0.432,1.513-0.702c0.432-0.054,0.702-0.271,0.919-0.487  c0.486-0.162,0.918-0.595,1.405-0.918c0.27-0.217,0.486-0.432,0.648-0.649c0.648-0.702,1.243-1.513,1.567-2.269  c0.486-0.81,0.864-1.729,0.918-2.593c0.108-0.919,0.27-1.892,0.162-2.864c-0.054-0.918-0.108-1.945-0.432-2.756  c-0.162-0.648-0.378-1.135-0.648-1.729c-0.109-0.27-0.324-0.594-0.432-0.918c-0.487-0.811-1.135-1.513-1.675-2.215  c-0.432-0.541-1.027-1.027-1.513-1.459c-0.702-0.702-1.513-1.189-2.27-1.675c-0.54-0.378-1.135-0.649-1.675-0.973  c-1.134-0.54-2.269-1.135-3.188-1.729c-0.161-0.108-0.324-0.324-0.432-0.378c-0.324-0.162-0.594-0.378-0.81-0.702  c-0.108-0.216-0.216-0.432-0.27-0.595c-0.054-0.216-0.054-0.324-0.216-0.432c0-0.216,0-0.432,0-0.54  c0.162-0.216,0.216-0.486,0.216-0.81c0.162-0.216,0.27-0.378,0.432-0.648c0.217-0.162,0.324-0.324,0.487-0.486  c0.27-0.162,0.594-0.324,0.756-0.378c0.487-0.216,0.757-0.27,1.189-0.432c0.594,0,1.08,0,1.621,0  c0.595,0.162,1.243,0.324,1.729,0.594c0.811,0.271,1.513,0.703,2.378,1.297c0.324,0.27,0.757,0.703,1.135,1.081  c0.324,0.27,0.595,0.486,0.973,0.54c0.378,0.216,0.702,0.324,1.135,0.324c0.432,0,0.81-0.108,1.296-0.324  c0.217-0.054,0.595-0.27,0.865-0.54c0.217-0.216,0.378-0.432,0.432-0.648c0.378-0.432,0.432-1.027,0.432-1.513  c0-0.216-0.054-0.486-0.054-0.81C322.307,594.324,322.09,593.892,321.712,593.46z M363.752,583.032  c-3.675,0.054-7.295,0.054-11.023,0.162c-0.864,0-1.621,0-2.485,0.054c-0.973,0-1.945,0.216-2.863,0.486  c-0.595,0.054-1.081,0.378-1.621,0.54c-0.54,0.324-1.027,0.648-1.405,1.081c-0.487,0.378-0.81,0.756-1.351,1.243  c-0.109,0.324-0.217,0.594-0.432,0.973c-0.162,0.486-0.432,0.918-0.54,1.567c-0.217,0.432-0.27,0.865-0.324,1.405  c-0.054,0.864-0.216,1.675-0.216,2.485c0.161,1.729,0.216,3.512,0.27,5.295c0.054,2.27,0.27,4.593,0.378,6.862  c-0.054,0.324,0,0.703,0.054,1.027c0,1.027,0.054,2.161,0.216,3.134c0.378,3.729,0.595,7.457,0.973,11.023  c0.162,0.432,0.216,0.918,0.216,1.351c0,0.378,0.109,0.81,0.27,1.135c0.162,0.378,0.27,0.702,0.595,0.973  c0.324,0.324,0.648,0.54,1.081,0.648c0.27,0.217,0.649,0.27,1.027,0.27c0.81-0.054,1.675-0.324,2.161-0.918  c0.162-0.162,0.379-0.378,0.487-0.595c0.27-0.432,0.432-0.973,0.432-1.513c-0.432-4.106-0.919-8.267-1.189-12.373  c0-0.486-0.162-0.973-0.162-1.459c0.54-0.054,1.027-0.162,1.567-0.216c1.891-0.27,3.728-0.432,5.619-0.432c0.595,0,1.135,0,1.837,0  c0.378,0,0.757-0.108,1.08-0.324c0.432-0.054,0.702-0.27,0.919-0.594c0.378-0.216,0.54-0.595,0.702-0.865  c0.161-0.486,0.27-0.756,0.27-1.243c-0.109-0.27-0.109-0.54-0.217-0.81c-0.054-0.486-0.27-0.919-0.756-1.351  c-0.109-0.108-0.379-0.27-0.54-0.432c-0.487-0.27-1.027-0.378-1.459-0.378c-1.621,0-3.188,0-4.917,0.108  c-1.513,0.054-2.972,0.27-4.431,0.594c-0.054-1.729-0.108-3.35-0.27-4.863c-0.054-1.189-0.054-2.323-0.054-3.566  c-0.108-0.649-0.108-1.459,0-2.215c0.054-0.27,0.217-0.595,0.27-0.973c0.054-0.108,0.162-0.27,0.162-0.324  c0.054-0.054,0.162-0.108,0.162-0.108c0.216-0.162,0.27-0.27,0.324-0.324c0.324-0.054,0.757-0.108,1.135-0.27  c0.649,0,1.297-0.054,1.892-0.054c1.08,0,1.944,0,2.971,0c1.945-0.108,3.945-0.108,5.889-0.108c1.135,0,2.27-0.054,3.297-0.054  c0.81,0,1.566-0.324,2.161-0.919c0.378-0.216,0.487-0.54,0.595-0.919c0.216-0.324,0.324-0.756,0.324-1.188  c-0.108-0.756-0.378-1.513-0.918-2.054C365.319,583.41,364.563,583.032,363.752,583.032z M375.694,597.945  c-0.324-0.324-0.648-0.595-1.08-0.648c-0.324-0.108-0.648-0.27-1.135-0.27c-0.216,0-0.486,0.162-0.702,0.162  c-0.54,0.108-1.026,0.378-1.404,0.756c-0.162,0.162-0.27,0.432-0.432,0.54c-0.324,0.594-0.432,1.081-0.432,1.513  c-0.162,3.134-0.27,6.376-0.27,9.401c-0.054,3.08-0.054,3.242-0.054,6.376c0,1.783,0,3.512,0,5.241c0,0.487,0.054,0.865,0.27,1.243  c0.054,0.27,0.324,0.595,0.54,0.865c0.324,0.378,0.649,0.486,1.027,0.702c0.378,0.162,0.756,0.324,1.188,0.162  c0.217,0,0.487,0,0.757-0.054c0.486-0.054,0.973-0.378,1.351-0.81c0.217-0.108,0.27-0.324,0.432-0.595  c0.324-0.432,0.432-0.918,0.432-1.513c0-3.08-0.054-6.214,0-9.347c0-3.134,0.054-3.242,0.162-6.376c0-1.729,0.108-3.512,0.161-5.295  c0-0.378-0.054-0.756-0.27-1.189C376.127,598.485,375.911,598.106,375.694,597.945z M377.099,587.408  c-0.108-0.486-0.27-1.027-0.756-1.405c-0.162-0.054-0.432-0.216-0.595-0.432c-0.432-0.216-0.973-0.432-1.567-0.432  c-0.324,0-0.756,0.054-1.08,0.324c-0.324,0.108-0.702,0.324-0.973,0.54c-0.378,0.324-0.486,0.649-0.702,1.081  c-0.108,0.324-0.216,0.703-0.216,1.134c0.108,0.27,0.108,0.432,0.162,0.756c0.054,0.486,0.324,1.081,0.756,1.405  c0.162,0.108,0.378,0.324,0.648,0.432c0.432,0.378,0.919,0.432,1.405,0.432c0.432,0,0.865-0.054,1.189-0.324  c0.378-0.054,0.756-0.324,0.973-0.54c0.378-0.27,0.54-0.648,0.594-0.973c0.324-0.432,0.379-0.81,0.324-1.189  C377.262,587.895,377.262,587.732,377.099,587.408z M402.981,597.728c-0.108-0.81-0.378-1.567-0.648-2.215  c-0.217-0.594-0.487-1.135-0.649-1.621l-1.081-1.459c-0.324-0.324-0.432-0.54-0.702-0.756c-0.486-0.378-0.918-0.756-1.513-0.973  c-0.486-0.27-1.135-0.54-1.675-0.594c-0.648-0.216-1.188-0.324-1.729-0.324c-0.702,0-1.297,0.108-1.892,0.324  c-0.324,0-0.702,0.054-0.972,0.27c-0.541,0.108-1.135,0.432-1.675,0.81c-0.487,0.162-1.081,0.648-1.513,0.919  c-0.541,0.486-1.135,1.027-1.622,1.567c-0.324,0.324-0.648,0.81-0.864,1.243c-0.217-0.919-0.324-1.729-0.541-2.702  c-0.054-0.324-0.161-0.648-0.486-0.973c-0.27-0.324-0.487-0.541-0.81-0.811c-0.378-0.216-0.702-0.324-1.135-0.324  c-0.432-0.054-0.757-0.054-1.188,0.054c-0.324,0.054-0.54,0.216-0.702,0.27c-0.54,0.27-0.865,0.756-1.135,1.135  c-0.054,0.27-0.162,0.486-0.378,0.648c-0.054,0.594-0.054,1.134,0,1.675c0.486,2.161,0.81,4.214,1.081,6.484  c0.378,2.593,0.702,5.295,0.918,7.943c0.27,2.756,0.432,5.565,0.648,8.375c0.054,1.513,0.109,3.08,0.217,4.593  c0,0.432,0.108,0.81,0.216,1.243c0.162,0.324,0.379,0.702,0.702,0.919c0.217,0.27,0.487,0.54,0.865,0.648  c0.378,0.108,0.757,0.216,1.188,0.216c0.324,0,0.595-0.108,0.757-0.108c0.595-0.108,1.027-0.378,1.458-0.756  c0.054-0.109,0.27-0.432,0.432-0.595c0.27-0.54,0.379-1.027,0.379-1.567c-0.109-3.674-0.379-7.348-0.649-11.077  c-0.54-2.972-0.162-5.511,0.757-7.997c0.594-1.405,1.405-2.702,2.323-3.89c0.432-0.702,0.973-1.134,1.567-1.621  c0.216-0.27,0.594-0.432,0.973-0.595l0.756-0.27h0.54c0.108,0.108,0.217,0.108,0.379,0.216c0.108,0,0.108,0.054,0.216,0.054  c0.162,0.054,0.216,0.27,0.27,0.324c0.27,0.27,0.378,0.594,0.595,0.864c0.324,0.81,0.486,1.837,0.594,2.648  c0.324,2.702,0,5.349-0.108,7.943c-0.27,2.972-0.648,5.781-0.81,8.807c-0.162,1.567-0.324,3.242-0.432,4.863  c0,0.487,0.054,0.865,0.162,1.243c0.27,0.27,0.378,0.649,0.702,0.919c0.324,0.27,0.486,0.486,0.973,0.594  c0.324,0.217,0.648,0.27,1.08,0.27c0.27,0,0.595-0.054,0.918-0.054c0.432-0.217,0.919-0.432,1.297-0.81  c0.217-0.162,0.324-0.379,0.378-0.649c0.379-0.432,0.432-0.864,0.432-1.513c0.378-3.458,0.702-7.078,1.027-10.59  c0.108-1.675,0.324-3.404,0.432-5.188c0.108-1.621,0.216-3.188,0.108-4.809C403.305,599.835,403.196,598.755,402.981,597.728z   M432.051,614.64c0.217,0.432,0.217,0.757-0.054,1.243c0,0.162-0.054,0.432-0.217,0.81c-0.216,0.432-0.324,0.919-0.594,1.405  c-0.217,0.27-0.379,0.54-0.487,0.81c-0.324,0.487-0.648,0.865-1.026,1.189c-0.595,0.702-1.243,1.243-1.945,1.783  c-0.432,0.27-1.027,0.54-1.567,0.81c-0.757,0.378-1.513,0.702-2.431,0.865c-0.487,0.216-1.135,0.216-1.567,0.27  c-0.378,0.054-0.757,0.054-0.919,0.054c-0.378,0-0.648,0-1.026-0.054c-0.432-0.054-1.135-0.054-1.621-0.27  c-0.973-0.162-1.729-0.487-2.594-0.865c-0.594-0.27-1.134-0.595-1.729-0.918c-0.648-0.54-1.351-1.135-2-1.729  c-0.648-0.595-1.188-1.351-1.783-1.999c-0.432-0.541-0.756-1.135-0.973-1.729c-0.594-0.81-0.918-1.675-1.188-2.648  c-0.217-0.702-0.324-1.513-0.595-2.215c-0.108-0.918-0.324-1.999-0.324-3.08c-0.054-1.783,0.217-3.566,0.379-5.295  c0.324-1.405,0.756-2.756,1.296-4.107c0.27-0.81,0.757-1.675,1.243-2.432c0.379-0.756,0.919-1.567,1.567-2.269  c0.432-0.486,0.865-0.973,1.405-1.405c0.702-0.648,1.351-1.134,2.107-1.567c0.54-0.27,1.026-0.378,1.458-0.702  c0.324-0.054,0.648-0.162,0.973-0.216c0.81-0.27,1.621-0.486,2.432-0.486c0.972-0.054,1.783,0,2.647,0.108  c0.487,0.108,1.135,0.216,1.729,0.54c0.756,0.216,1.458,0.594,2.107,1.134c0.432,0.27,0.918,0.541,1.351,1.027  c0.324,0.378,0.702,0.81,0.918,1.243c0.162,0.27,0.324,0.54,0.54,0.756c0.109,0.486,0.432,1.027,0.54,1.459  c0.109,0.378,0.217,0.702,0.217,0.864c0.054,0.648,0.162,1.135,0.216,1.783c0,0.811-0.054,1.675-0.216,2.431  c-0.108,0.703-0.27,1.351-0.595,1.837c-0.27,0.81-0.648,1.621-1.026,2.323c-0.541,0.703-1.135,1.351-1.729,1.945  c-0.432,0.486-0.973,0.81-1.405,1.134c-0.27,0.162-0.594,0.378-0.81,0.595c-0.756,0.432-1.675,0.756-2.54,1.134  c-1.566,0.649-3.187,0.81-4.754,1.081c-0.648,0.054-1.405,0.054-2.053,0.054c-0.54,0-0.973-0.054-1.513-0.216  c0.108,0.594,0.216,1.026,0.54,1.621c0.216,0.595,0.648,1.351,1.188,2.053c0.378,0.595,0.918,1.135,1.513,1.513  c0.487,0.432,1.135,0.81,1.675,1.027c0.595,0.161,1.135,0.378,1.729,0.486c0.432,0.054,0.864,0.054,1.296,0  c0.595-0.108,1.081-0.216,1.513-0.378c0.379-0.27,0.865-0.54,1.297-0.757c0.324-0.27,0.595-0.648,0.865-0.81  c0.27-0.378,0.432-0.648,0.486-1.026c0.108-0.109,0.162-0.432,0.324-0.703c0.054-0.487,0.27-0.919,0.702-1.243  c0.162-0.162,0.486-0.379,0.648-0.487c0.432-0.324,0.865-0.378,1.513-0.378c0.27,0,0.487,0,0.81,0.054  c0.324,0.054,0.702,0.324,0.973,0.486c0.324,0.324,0.595,0.595,0.81,0.973C431.943,613.775,432.051,614.154,432.051,614.64z   M413.68,604.807c0.324-0.108,0.595,0,0.865,0.108c0.324,0.054,0.702,0.108,0.973,0.432c0.27,0,0.54,0,0.918,0  c0.379-0.108,0.757-0.108,1.189-0.108c1.081-0.216,1.945-0.432,3.026-0.918c0.648-0.162,1.188-0.541,1.783-0.865  c0.378-0.378,0.648-0.756,0.973-1.081c0.27-0.432,0.595-0.756,0.702-1.189c0.162-0.432,0.27-0.919,0.432-1.459  c0-0.378,0-0.81,0-1.189c-0.109-0.324-0.162-0.486-0.27-0.864c-0.054-0.216-0.217-0.378-0.27-0.648  c-0.27-0.108-0.379-0.378-0.595-0.432c-0.217-0.108-0.432-0.324-0.595-0.432c-0.378-0.054-0.756-0.271-1.08-0.271  c-0.487-0.054-1.027-0.054-1.513,0c-0.378,0.108-0.865,0.216-1.405,0.378c-0.432,0.27-0.81,0.594-1.243,0.756  c-0.486,0.432-0.918,0.865-1.351,1.405c-0.595,0.81-1.027,1.621-1.459,2.647C414.275,602.267,413.897,603.51,413.68,604.807z   M459.015,582.924c-0.161-0.432-0.378-0.703-0.648-1.027c-0.216-0.27-0.595-0.486-0.918-0.649c-0.432-0.162-0.81-0.27-1.189-0.27  c-0.27,0.108-0.54,0.108-0.756,0.108c-0.595,0.162-1.027,0.486-1.297,0.81c-0.216,0.216-0.378,0.378-0.54,0.594  c-0.324,0.54-0.432,1.027-0.432,1.567c-0.162,3.566-0.324,7.186-0.432,10.86c-0.108,3.566-0.324,7.186-0.378,10.698  c-0.054,2.107-0.216,4.052-0.27,6.052c0,0.486,0.054,0.864,0.27,1.243c0.217,0.324,0.378,0.756,0.595,0.918  c0.324,0.432,0.648,0.54,1.026,0.703c0.379,0.216,0.757,0.324,1.189,0.216c0.27,0,0.486,0,0.756-0.054  c0.432-0.162,0.973-0.432,1.297-0.865c0.216-0.162,0.432-0.378,0.486-0.595c0.379-0.432,0.432-0.973,0.432-1.566  c0.162-3.512,0.217-7.133,0.432-10.753c0.108-3.566,0.217-7.132,0.432-10.806c0-2.053,0.054-4.052,0.217-6.051  C459.286,583.626,459.123,583.248,459.015,582.924z M456.368,620.421c-0.324-0.161-0.432-0.324-0.649-0.486  c-0.486-0.324-1.08-0.432-1.513-0.432c-0.486,0-0.865,0.108-1.296,0.324c-0.27,0.054-0.702,0.324-0.919,0.594  c-0.27,0.217-0.54,0.54-0.594,0.919c-0.162,0.486-0.27,0.756-0.27,1.188c0,0.27,0.108,0.54,0.108,0.81  c0.162,0.487,0.432,0.973,0.756,1.351c0.217,0.054,0.432,0.27,0.649,0.486c0.432,0.27,1.026,0.432,1.566,0.432  c0.378,0,0.702-0.108,1.081-0.27c0.432-0.162,0.757-0.378,1.081-0.648c0.216-0.325,0.486-0.595,0.54-1.027  c0.108-0.324,0.27-0.702,0.27-1.135c0-0.27-0.162-0.54-0.162-0.702C456.908,621.233,456.638,620.746,456.368,620.421z"></path>
<g>
</g>
<g>
</g>
<g>
</g>
<g>
</g>
<g>
</g>
</svg>
